<svg width="51" height="32" viewBox="0 0 51 32" fill="none" xmlns="http://www.w3.org/2000/svg">
<g clip-path="url(#clip0)">
<path d="M15.8922 20.6434C14.58 21.8024 13.4775 23.1786 12.6385 24.71C12.7353 24.5031 12.8429 24.291 12.9558 24.0685C12.1437 23.6805 11.2779 23.5149 10.3905 23.4839C5.92135 23.3286 2.40949 26.464 2.2105 30.7789C2.17823 31.4257 1.95773 31.7671 1.44682 31.9379C0.699267 32.1862 -0.0106354 31.6585 0.000120689 30.8307C0.0431451 28.3679 0.925145 26.2105 2.67301 24.41C5.5664 21.4195 9.92262 20.5296 13.854 22.1024C14.1767 22.2266 14.3326 22.1852 14.5531 21.9369C14.9726 21.4661 15.4297 21.047 15.8922 20.6434Z" fill="#C4C4C4"/>
<path d="M16.5268 20.1107C16.3063 20.2762 16.102 20.4625 15.8922 20.6436C16.0966 20.4625 16.3117 20.2814 16.5268 20.1107Z" fill="black"/>
<path d="M51 29.9925V31.2394C50.7472 31.6481 50.4514 31.9948 49.8921 31.9999C49.2736 31.9999 48.8219 31.5498 48.795 30.8772C48.7519 29.7649 48.5153 28.6939 48.0098 27.6902C46.4716 24.6221 42.9813 22.982 39.5985 23.5925C39.222 23.6546 38.8456 23.7529 38.4745 23.8771C38.3347 23.9236 38.2002 23.9909 38.1195 24.0271C38.1572 24.1254 38.2002 24.2237 38.2378 24.3168C38.1195 24.1151 37.9905 23.9185 37.8614 23.7218C37.4849 23.1476 37.0601 22.5991 36.5922 22.0869C36.7212 22.1904 36.8503 22.2214 37.0816 22.1283C37.4419 21.9886 37.8022 21.8645 38.1626 21.7661C44.073 20.095 50.005 23.6753 50.9139 29.7183C50.93 29.8114 50.9731 29.8994 51 29.9925Z" fill="#C4C4C4"/>
<path d="M38.8401 32.0001C38.1679 32.0208 37.7054 31.5344 37.6839 30.7221C37.6086 27.6644 36.5114 24.9896 34.2796 22.8269C30.7677 19.4225 26.5029 18.3257 21.7648 19.8002C17.0214 21.2799 14.2517 24.5756 13.4289 29.3356C13.3536 29.7908 13.3428 30.2565 13.3159 30.717C13.2675 31.5344 12.8373 32.0208 12.1597 32.0001C11.4766 31.9742 11.0625 31.462 11.0841 30.6497C11.1378 28.5698 11.5519 26.9504 12.6383 24.7102C13.6064 22.9356 14.9347 21.3731 16.5266 20.1107C16.688 19.9865 16.8493 19.8623 17.0107 19.7485C22.9534 15.5422 31.3647 16.282 36.4684 21.9629C36.5114 22.0094 36.5491 22.0508 36.5921 22.087C37.06 22.5993 37.4849 23.1477 37.8613 23.722C37.9904 23.9186 38.1195 24.1152 38.2378 24.317C38.6304 25.2741 39.0768 26.1951 39.3349 27.1626C39.6361 28.2956 39.7652 29.4804 39.8996 30.6497C39.991 31.4516 39.5285 31.9742 38.8401 32.0001Z" fill="#007BFF"/>
<path d="M25.5027 0C29.7783 0 33.2632 3.3578 33.2632 7.47098C33.2632 11.579 29.7621 14.942 25.492 14.9368C21.2272 14.9368 17.7314 11.5686 17.7314 7.46063C17.7368 3.35263 21.2272 0 25.5027 0ZM25.3898 12.8C28.3692 12.919 30.9238 10.5546 31.0421 7.57445C31.1604 4.71851 28.7349 2.27648 25.6587 2.13678C22.6577 2.00226 20.0763 4.36669 19.958 7.36233C19.8396 10.2338 22.2813 12.6758 25.3898 12.8Z" fill="#007BFF"/>
<path d="M46.5578 13.871C46.5578 16.8201 44.0839 19.1949 41.0184 19.1897C37.9637 19.1897 35.4683 16.7891 35.4736 13.8659C35.479 10.9427 37.9852 8.53168 41.0238 8.53168C44.0731 8.53168 46.5578 10.9323 46.5578 13.871ZM44.3367 13.871C44.3367 12.1016 42.8577 10.6685 41.0238 10.6633C39.206 10.6581 37.7002 12.1068 37.6948 13.8607C37.6894 15.6198 39.1845 17.0581 41.013 17.0581C42.8577 17.0633 44.3367 15.6405 44.3367 13.871Z" fill="#C4C4C4"/>
<path d="M15.6662 13.8399C15.6823 16.7838 13.2246 19.1689 10.1591 19.1896C7.10974 19.2051 4.60357 16.82 4.58744 13.8916C4.57668 10.9633 7.06672 8.54711 10.1053 8.53676C13.16 8.52124 15.6501 10.896 15.6662 13.8399ZM13.4505 13.8761C13.4558 12.1067 11.9769 10.6735 10.143 10.6632C8.33056 10.6528 6.81395 12.1015 6.80319 13.8554C6.79244 15.6094 8.29291 17.0528 10.1214 17.058C11.9607 17.0632 13.4505 15.6456 13.4505 13.8761Z" fill="#C4C4C4"/>
</g>
<defs>
<clipPath id="clip0">
<rect width="51" height="32" fill="white"/>
</clipPath>
</defs>
</svg>
