<svg width="52" height="33" viewBox="0 0 52 33" fill="none" xmlns="http://www.w3.org/2000/svg">
<g clip-path="url(#clip0_83:597)">
<path d="M16.1455 20.7577C14.8356 21.9166 13.7351 23.2928 12.8976 24.8243C12.9942 24.6173 13.1016 24.4052 13.2143 24.1827C12.4037 23.7947 11.5394 23.6291 10.6536 23.5981C6.19243 23.4429 2.68685 26.5782 2.48822 30.8932C2.45601 31.5399 2.2359 31.8813 1.7259 32.0521C0.979692 32.3004 0.271061 31.7727 0.281798 30.9449C0.324745 28.4822 1.20517 26.3247 2.9499 24.5242C5.83811 21.5337 10.1865 20.6438 14.1108 22.2167C14.433 22.3408 14.5886 22.2995 14.8087 22.0511C15.2275 21.5803 15.6838 21.1612 16.1455 20.7577Z" fill="white"/>
<path d="M16.779 20.2248C16.5589 20.3904 16.3549 20.5766 16.1455 20.7577C16.3495 20.5766 16.5642 20.3956 16.779 20.2248Z" fill="black"/>
<path d="M51.1904 30.1067V31.3536C50.938 31.7623 50.6428 32.109 50.0845 32.1142C49.4671 32.1142 49.0161 31.664 48.9893 30.9915C48.9464 29.8791 48.7101 28.8081 48.2055 27.8044C46.6701 24.7363 43.186 23.0962 39.8093 23.7067C39.4335 23.7688 39.0577 23.8671 38.6873 23.9913C38.5477 24.0379 38.4135 24.1051 38.333 24.1413C38.3706 24.2396 38.4135 24.3379 38.4511 24.4311C38.333 24.2293 38.2041 24.0327 38.0753 23.8361C37.6995 23.2618 37.2754 22.7134 36.8083 22.2012C36.9372 22.3046 37.066 22.3357 37.2969 22.2425C37.6566 22.1029 38.0162 21.9787 38.3759 21.8804C44.2758 20.2092 50.1972 23.7895 51.1045 29.8325C51.1206 29.9256 51.1635 30.0136 51.1904 30.1067Z" fill="white"/>
<path d="M39.0524 32.1143C38.3814 32.135 37.9197 31.6486 37.8982 30.8364C37.8231 27.7786 36.7279 25.1038 34.5 22.9411C30.9944 19.5368 26.7373 18.4399 22.0077 19.9145C17.2727 21.3942 14.508 24.6899 13.6866 29.4498C13.6115 29.9051 13.6007 30.3707 13.5739 30.8312C13.5256 31.6486 13.0961 32.135 12.4197 32.1143C11.7379 32.0884 11.3245 31.5762 11.346 30.7639C11.3997 28.6841 11.8131 27.0647 12.8975 24.8244C13.8638 23.0498 15.1898 21.4873 16.7789 20.2249C16.9399 20.1007 17.101 19.9765 17.262 19.8627C23.1941 15.6564 31.5903 16.3963 36.6849 22.0771C36.7279 22.1237 36.7655 22.1651 36.8084 22.2013C37.2755 22.7135 37.6996 23.2619 38.0754 23.8362C38.2042 24.0328 38.333 24.2294 38.4512 24.4312C38.8431 25.3883 39.2886 26.3093 39.5463 27.2768C39.8469 28.4098 39.9758 29.5946 40.11 30.7639C40.2013 31.5659 39.7396 32.0884 39.0524 32.1143Z" fill="white"/>
<path d="M25.7388 0.114197C30.0067 0.114197 33.4855 3.472 33.4855 7.58518C33.4855 11.6932 29.9906 15.0562 25.7281 15.051C21.4709 15.051 17.9815 11.6828 17.9815 7.57483C17.9868 3.46682 21.4709 0.114197 25.7388 0.114197ZM25.6261 12.9142C28.6002 13.0332 31.1502 10.6688 31.2683 7.68865C31.3864 4.83271 28.9653 2.39067 25.8945 2.25098C22.8989 2.11646 20.3221 4.48089 20.204 7.47652C20.0859 10.348 22.5232 12.79 25.6261 12.9142Z" fill="white"/>
<path d="M46.7561 13.9852C46.7561 16.9343 44.2867 19.3091 41.2267 19.3039C38.1774 19.3039 35.6865 16.9032 35.6918 13.98C35.6972 11.0568 38.1989 8.64584 41.232 8.64584C44.2759 8.64584 46.7561 11.0465 46.7561 13.9852ZM44.539 13.9852C44.539 12.2158 43.0627 10.7826 41.232 10.7775C39.4175 10.7723 37.9144 12.2209 37.909 13.9749C37.9036 15.734 39.3961 17.1723 41.2213 17.1723C43.0627 17.1775 44.539 15.7547 44.539 13.9852Z" fill="white"/>
<path d="M15.9199 13.9541C15.936 16.898 13.4827 19.2831 10.4227 19.3038C7.37879 19.3193 4.8771 16.9342 4.861 14.0058C4.85026 11.0775 7.33584 8.6613 10.369 8.65095C13.4183 8.63543 15.9038 11.0102 15.9199 13.9541ZM13.7082 13.9903C13.7135 12.2209 12.2372 10.7877 10.4066 10.7774C8.59742 10.767 7.08352 12.2157 7.07279 13.9696C7.06205 15.7235 8.55984 17.167 10.3851 17.1722C12.2211 17.1774 13.7082 15.7598 13.7082 13.9903Z" fill="white"/>
</g>
<defs>
<clipPath id="clip0_83:597">
<rect width="50.9087" height="32" fill="white" transform="translate(0.281738 0.114197)"/>
</clipPath>
</defs>
</svg>
