<svg width="1440" height="306" viewBox="0 0 1440 306" fill="none" xmlns="http://www.w3.org/2000/svg">
<rect x="0.0454102" width="1439.99" height="296.75" fill="url(#paint0_linear_659:183)"/>
<rect x="-0.00012207" y="296.759" width="1440" height="8.7329" fill="url(#paint1_linear_659:183)"/>
<g opacity="0.8">
<path d="M489.926 148.871C495.467 143.351 495.467 134.401 489.926 128.881C484.385 123.361 475.401 123.361 469.859 128.881C464.318 134.401 464.318 143.351 469.859 148.871C475.401 154.39 484.385 154.39 489.926 148.871Z" fill="#016EB9"/>
<path d="M488.688 148.871C494.229 143.351 494.229 134.401 488.688 128.881C483.147 123.362 474.163 123.362 468.621 128.881C463.08 134.401 463.08 143.351 468.621 148.871C474.163 154.391 483.147 154.391 488.688 148.871Z" fill="#00A3FE"/>
<path d="M478.655 151.922C476.91 151.922 475.217 151.581 473.623 150.91C472.083 150.261 470.701 149.333 469.514 148.15C468.327 146.967 467.394 145.59 466.743 144.056C466.069 142.468 465.727 140.782 465.727 139.043C465.727 137.305 466.069 135.618 466.743 134.031C467.394 132.497 468.326 131.12 469.514 129.937C470.701 128.755 472.083 127.826 473.623 127.177C475.217 126.506 476.91 126.165 478.655 126.165C480.4 126.165 482.093 126.506 483.687 127.177C485.227 127.826 486.609 128.754 487.797 129.937C488.983 131.119 489.916 132.497 490.567 134.031C491.241 135.618 491.583 137.305 491.583 139.043C491.583 140.782 491.241 142.468 490.567 144.056C489.916 145.59 488.984 146.967 487.797 148.15C486.61 149.332 485.227 150.261 483.687 150.91C482.093 151.581 480.4 151.922 478.655 151.922ZM478.655 126.933C475.408 126.933 472.355 128.193 470.059 130.48C467.763 132.767 466.498 135.809 466.498 139.043C466.498 142.278 467.763 145.319 470.059 147.607C472.355 149.894 475.408 151.154 478.655 151.154C481.902 151.154 484.955 149.894 487.251 147.607C489.547 145.319 490.812 142.278 490.812 139.043C490.812 135.809 489.547 132.767 487.251 130.48C484.955 128.193 481.902 126.933 478.655 126.933Z" fill="#016EB9"/>
<path d="M480.435 142.781C480.468 142.504 480.458 142.255 480.405 142.034C480.351 141.813 480.245 141.606 480.087 141.413C479.929 141.22 479.718 141.034 479.452 140.855C479.187 140.676 478.86 140.493 478.469 140.306C477.797 139.979 477.192 139.647 476.652 139.312C476.112 138.976 475.66 138.609 475.294 138.211C474.928 137.812 474.661 137.365 474.492 136.868C474.323 136.372 474.276 135.8 474.354 135.152C474.42 134.59 474.582 134.09 474.837 133.65C475.092 133.211 475.426 132.841 475.839 132.541C476.251 132.242 476.729 132.015 477.273 131.861C477.817 131.708 478.414 131.639 479.064 131.655L479.317 129.533L481.032 129.736L480.775 131.888C481.38 132.04 481.918 132.268 482.389 132.572C482.86 132.875 483.248 133.243 483.552 133.674C483.855 134.106 484.07 134.599 484.196 135.154C484.322 135.708 484.346 136.317 484.267 136.977L481.169 136.611C481.264 135.818 481.158 135.204 480.851 134.768C480.544 134.334 480.094 134.08 479.501 134.01C479.18 133.972 478.896 133.984 478.654 134.046C478.411 134.108 478.205 134.207 478.037 134.345C477.868 134.483 477.736 134.653 477.639 134.857C477.543 135.06 477.479 135.283 477.45 135.528C477.422 135.773 477.43 135.999 477.478 136.205C477.526 136.412 477.628 136.61 477.782 136.799C477.937 136.989 478.15 137.175 478.423 137.358C478.694 137.54 479.035 137.737 479.445 137.947C480.108 138.287 480.707 138.625 481.243 138.964C481.779 139.302 482.23 139.673 482.595 140.074C482.96 140.476 483.227 140.925 483.396 141.422C483.565 141.918 483.612 142.487 483.535 143.128C483.466 143.71 483.302 144.221 483.043 144.659C482.785 145.099 482.449 145.464 482.037 145.758C481.625 146.051 481.145 146.269 480.595 146.412C480.046 146.555 479.446 146.618 478.796 146.602L478.561 148.575L476.856 148.374L477.09 146.409C476.504 146.279 475.946 146.083 475.416 145.82C474.886 145.556 474.428 145.212 474.044 144.787C473.659 144.363 473.373 143.851 473.183 143.252C472.994 142.653 472.946 141.956 473.041 141.163L476.138 141.529C476.082 141.998 476.101 142.398 476.196 142.727C476.292 143.057 476.438 143.329 476.637 143.544C476.836 143.758 477.072 143.921 477.346 144.03C477.619 144.139 477.902 144.211 478.195 144.246C478.531 144.285 478.831 144.277 479.095 144.221C479.358 144.165 479.585 144.071 479.775 143.939C479.965 143.807 480.115 143.642 480.225 143.444C480.336 143.247 480.406 143.026 480.435 142.781Z" fill="#016EB9"/>
</g>
<g opacity="0.5">
<path d="M1156.49 207.882C1163.01 201.389 1163.01 190.862 1156.49 184.369C1149.97 177.875 1139.41 177.875 1132.89 184.369C1126.37 190.862 1126.37 201.389 1132.89 207.882C1139.41 214.376 1149.97 214.376 1156.49 207.882Z" fill="#016EB9"/>
<path d="M1155.04 207.883C1161.56 201.389 1161.56 190.862 1155.04 184.369C1148.52 177.876 1137.95 177.876 1131.43 184.369C1124.91 190.862 1124.91 201.389 1131.43 207.883C1137.95 214.376 1148.52 214.376 1155.04 207.883Z" fill="#00A3FE"/>
<path d="M1143.24 211.472C1141.18 211.472 1139.19 211.071 1137.32 210.281C1135.5 209.518 1133.88 208.426 1132.48 207.035C1131.09 205.644 1129.99 204.023 1129.22 202.219C1128.43 200.351 1128.03 198.367 1128.03 196.323C1128.03 194.278 1128.43 192.294 1129.22 190.426C1129.99 188.622 1131.09 187.002 1132.48 185.611C1133.88 184.22 1135.5 183.127 1137.32 182.364C1139.19 181.574 1141.18 181.173 1143.24 181.173C1145.29 181.173 1147.28 181.574 1149.15 182.364C1150.97 183.127 1152.59 184.219 1153.99 185.611C1155.38 187.001 1156.48 188.622 1157.25 190.426C1158.04 192.294 1158.44 194.278 1158.44 196.323C1158.44 198.367 1158.04 200.351 1157.25 202.219C1156.48 204.023 1155.39 205.643 1153.99 207.035C1152.59 208.425 1150.97 209.518 1149.15 210.281C1147.28 211.071 1145.29 211.472 1143.24 211.472ZM1143.24 182.077C1139.42 182.077 1135.82 183.559 1133.12 186.249C1130.42 188.94 1128.93 192.517 1128.93 196.323C1128.93 200.128 1130.42 203.705 1133.12 206.396C1135.82 209.086 1139.42 210.568 1143.24 210.568C1147.06 210.568 1150.65 209.086 1153.35 206.396C1156.05 203.705 1157.54 200.128 1157.54 196.323C1157.54 192.517 1156.05 188.94 1153.35 186.249C1150.65 183.559 1147.06 182.077 1143.24 182.077Z" fill="#016EB9"/>
<path d="M1145.33 200.719C1145.37 200.393 1145.36 200.1 1145.29 199.84C1145.23 199.58 1145.11 199.337 1144.92 199.11C1144.73 198.883 1144.48 198.664 1144.17 198.453C1143.86 198.243 1143.48 198.028 1143.02 197.808C1142.23 197.423 1141.51 197.032 1140.88 196.638C1140.24 196.243 1139.71 195.812 1139.28 195.343C1138.85 194.873 1138.54 194.348 1138.34 193.764C1138.14 193.181 1138.08 192.507 1138.18 191.745C1138.25 191.084 1138.44 190.495 1138.74 189.978C1139.04 189.461 1139.44 189.027 1139.92 188.674C1140.41 188.321 1140.97 188.055 1141.61 187.874C1142.25 187.693 1142.95 187.612 1143.72 187.632L1144.01 185.135L1146.03 185.373L1145.73 187.905C1146.44 188.084 1147.07 188.352 1147.63 188.709C1148.18 189.066 1148.64 189.499 1149 190.007C1149.35 190.515 1149.61 191.094 1149.75 191.747C1149.9 192.399 1149.93 193.115 1149.84 193.892L1146.19 193.462C1146.3 192.528 1146.18 191.806 1145.82 191.294C1145.46 190.782 1144.93 190.484 1144.23 190.402C1143.85 190.357 1143.52 190.371 1143.23 190.444C1142.95 190.516 1142.71 190.634 1142.51 190.796C1142.31 190.958 1142.15 191.158 1142.04 191.397C1141.93 191.636 1141.85 191.899 1141.82 192.187C1141.78 192.475 1141.79 192.741 1141.85 192.984C1141.91 193.227 1142.03 193.46 1142.21 193.683C1142.39 193.906 1142.64 194.124 1142.96 194.339C1143.28 194.554 1143.68 194.786 1144.16 195.032C1144.94 195.432 1145.65 195.83 1146.28 196.229C1146.91 196.627 1147.44 197.063 1147.87 197.535C1148.3 198.008 1148.61 198.536 1148.81 199.12C1149.01 199.704 1149.07 200.373 1148.98 201.128C1148.89 201.812 1148.7 202.413 1148.4 202.929C1148.09 203.445 1147.7 203.876 1147.21 204.221C1146.73 204.566 1146.16 204.823 1145.52 204.99C1144.87 205.158 1144.17 205.233 1143.4 205.213L1143.12 207.535L1141.12 207.298L1141.39 204.987C1140.7 204.834 1140.05 204.603 1139.42 204.293C1138.8 203.983 1138.26 203.579 1137.81 203.079C1137.36 202.58 1137.02 201.978 1136.8 201.273C1136.58 200.568 1136.52 199.749 1136.63 198.815L1140.27 199.246C1140.21 199.798 1140.23 200.269 1140.34 200.656C1140.45 201.044 1140.63 201.364 1140.86 201.616C1141.1 201.869 1141.37 202.06 1141.7 202.188C1142.02 202.317 1142.35 202.401 1142.69 202.442C1143.09 202.488 1143.44 202.479 1143.75 202.413C1144.06 202.347 1144.33 202.237 1144.55 202.081C1144.78 201.926 1144.95 201.732 1145.08 201.499C1145.21 201.267 1145.29 201.007 1145.33 200.719Z" fill="#016EB9"/>
</g>
<g opacity="0.2">
<path d="M220.054 209.939C232.518 197.523 232.518 177.392 220.054 164.975C207.589 152.559 187.381 152.559 174.917 164.975C162.452 177.392 162.452 197.523 174.917 209.939C187.381 222.356 207.589 222.356 220.054 209.939Z" fill="#016EB9"/>
<path d="M217.269 209.939C229.733 197.523 229.733 177.392 217.269 164.976C204.805 152.559 184.596 152.559 172.132 164.976C159.668 177.392 159.668 197.523 172.132 209.939C184.596 222.356 204.805 222.356 217.269 209.939Z" fill="#00A3FE"/>
<path d="M194.701 216.803C190.776 216.803 186.968 216.036 183.383 214.526C179.919 213.067 176.81 210.979 174.139 208.318C171.469 205.658 169.371 202.56 167.907 199.109C166.39 195.538 165.621 191.744 165.621 187.834C165.621 183.924 166.39 180.13 167.907 176.559C169.371 173.108 171.468 170.012 174.139 167.351C176.809 164.691 179.919 162.601 183.383 161.142C186.968 159.632 190.776 158.865 194.701 158.865C198.627 158.865 202.435 159.632 206.02 161.142C209.484 162.601 212.593 164.689 215.264 167.351C217.934 170.01 220.032 173.108 221.496 176.559C223.012 180.13 223.782 183.924 223.782 187.834C223.782 191.744 223.012 195.538 221.496 199.109C220.032 202.56 217.935 205.656 215.264 208.318C212.594 210.977 209.484 213.067 206.02 214.526C202.435 216.036 198.627 216.803 194.701 216.803ZM194.701 160.594C187.397 160.594 180.53 163.427 175.365 168.572C170.201 173.717 167.356 180.558 167.356 187.834C167.356 195.111 170.201 201.951 175.365 207.096C180.53 212.241 187.397 215.074 194.701 215.074C202.006 215.074 208.873 212.241 214.038 207.096C219.202 201.951 222.047 195.111 222.047 187.834C222.047 180.558 219.202 173.717 214.038 168.572C208.873 163.427 202.006 160.594 194.701 160.594Z" fill="#016EB9"/>
<path d="M198.704 196.242C198.779 195.617 198.756 195.057 198.636 194.56C198.516 194.063 198.278 193.598 197.922 193.164C197.565 192.73 197.091 192.312 196.495 191.909C195.898 191.507 195.161 191.095 194.282 190.674C192.772 189.938 191.409 189.191 190.196 188.438C188.981 187.682 187.964 186.858 187.141 185.96C186.318 185.063 185.717 184.058 185.336 182.941C184.955 181.826 184.852 180.538 185.025 179.081C185.176 177.817 185.539 176.691 186.112 175.702C186.686 174.714 187.437 173.883 188.366 173.208C189.294 172.534 190.369 172.024 191.593 171.679C192.816 171.333 194.159 171.178 195.621 171.215L196.19 166.44L200.047 166.897L199.471 171.738C200.831 172.08 202.041 172.594 203.101 173.276C204.16 173.959 205.032 174.787 205.716 175.757C206.398 176.728 206.882 177.837 207.166 179.084C207.449 180.332 207.502 181.7 207.324 183.186L200.357 182.363C200.569 180.578 200.331 179.197 199.641 178.218C198.951 177.24 197.938 176.67 196.603 176.512C195.881 176.426 195.244 176.454 194.698 176.592C194.152 176.731 193.689 176.956 193.31 177.265C192.931 177.575 192.633 177.958 192.415 178.416C192.198 178.873 192.056 179.376 191.991 179.927C191.926 180.477 191.946 180.985 192.054 181.45C192.161 181.915 192.39 182.36 192.738 182.786C193.086 183.212 193.566 183.63 194.178 184.042C194.789 184.453 195.555 184.895 196.478 185.367C197.969 186.131 199.317 186.893 200.522 187.655C201.727 188.417 202.741 189.249 203.563 190.153C204.384 191.057 204.985 192.067 205.366 193.184C205.746 194.3 205.85 195.58 205.678 197.023C205.523 198.332 205.153 199.481 204.572 200.467C203.99 201.454 203.235 202.277 202.309 202.937C201.382 203.597 200.302 204.088 199.066 204.409C197.83 204.73 196.48 204.872 195.017 204.835L194.489 209.274L190.655 208.821L191.181 204.403C189.862 204.11 188.607 203.668 187.415 203.076C186.222 202.482 185.194 201.709 184.328 200.754C183.463 199.8 182.819 198.648 182.393 197.3C181.967 195.953 181.86 194.386 182.072 192.601L189.039 193.424C188.913 194.479 188.957 195.38 189.171 196.121C189.384 196.863 189.715 197.475 190.162 197.957C190.609 198.44 191.141 198.804 191.756 199.05C192.37 199.297 193.007 199.458 193.666 199.535C194.421 199.624 195.097 199.606 195.689 199.481C196.282 199.355 196.793 199.143 197.22 198.846C197.646 198.549 197.985 198.178 198.233 197.733C198.482 197.289 198.639 196.792 198.704 196.242Z" fill="#016EB9"/>
</g>
<path d="M1035.55 125.829C1044.7 116.705 1044.7 101.911 1035.55 92.7865C1026.39 83.6619 1011.53 83.6619 1002.37 92.7865C993.215 101.911 993.215 116.705 1002.37 125.829C1011.53 134.954 1026.39 134.954 1035.55 125.829Z" fill="#016EB9"/>
<path d="M1033.5 125.83C1042.66 116.705 1042.66 101.911 1033.5 92.7866C1024.34 83.6621 1009.49 83.6621 1000.33 92.7866C991.169 101.911 991.169 116.705 1000.33 125.83C1009.49 134.954 1024.34 134.954 1033.5 125.83Z" fill="#00A3FE"/>
<path d="M1016.91 130.873C1014.03 130.873 1011.23 130.31 1008.6 129.2C1006.05 128.128 1003.77 126.593 1001.8 124.638C999.841 122.683 998.3 120.406 997.223 117.871C996.109 115.246 995.544 112.458 995.544 109.585C995.544 106.711 996.109 103.923 997.223 101.299C998.3 98.7633 999.84 96.4875 1001.8 94.5319C1003.77 92.5775 1006.05 91.0417 1008.6 89.9697C1011.23 88.8596 1014.03 88.2963 1016.91 88.2963C1019.8 88.2963 1022.6 88.8596 1025.23 89.9697C1027.78 91.0417 1030.06 92.5763 1032.03 94.5319C1033.99 96.4863 1035.53 98.7633 1036.61 101.299C1037.72 103.923 1038.28 106.711 1038.28 109.585C1038.28 112.458 1037.72 115.246 1036.61 117.871C1035.53 120.406 1033.99 122.682 1032.03 124.638C1030.06 126.592 1027.78 128.128 1025.23 129.2C1022.6 130.31 1019.8 130.873 1016.91 130.873ZM1016.91 89.5665C1011.55 89.5665 1006.5 91.6489 1002.7 95.4297C998.909 99.2104 996.819 104.238 996.819 109.585C996.819 114.932 998.909 119.959 1002.7 123.74C1006.5 127.521 1011.55 129.603 1016.91 129.603C1022.28 129.603 1027.33 127.521 1031.12 123.74C1034.92 119.959 1037.01 114.932 1037.01 109.585C1037.01 104.238 1034.92 99.2104 1031.12 95.4297C1027.33 91.6489 1022.28 89.5665 1016.91 89.5665Z" fill="#016EB9"/>
<path d="M1019.86 115.763C1019.91 115.304 1019.89 114.893 1019.81 114.528C1019.72 114.162 1019.54 113.821 1019.28 113.502C1019.02 113.183 1018.67 112.876 1018.23 112.579C1017.79 112.284 1017.25 111.981 1016.61 111.672C1015.5 111.131 1014.5 110.582 1013.6 110.028C1012.71 109.473 1011.96 108.867 1011.36 108.208C1010.75 107.548 1010.31 106.81 1010.03 105.989C1009.75 105.17 1009.68 104.223 1009.8 103.152C1009.91 102.224 1010.18 101.396 1010.6 100.669C1011.02 99.9432 1011.58 99.3324 1012.26 98.8367C1012.94 98.341 1013.73 97.9662 1014.63 97.7124C1015.53 97.4586 1016.52 97.3448 1017.59 97.3721L1018.01 93.8629L1020.84 94.1985L1020.42 97.7563C1021.42 98.0077 1022.31 98.3848 1023.09 98.8865C1023.87 99.3881 1024.51 99.9965 1025.01 100.709C1025.51 101.423 1025.87 102.238 1026.07 103.155C1026.28 104.071 1026.32 105.077 1026.19 106.169L1021.07 105.564C1021.23 104.253 1021.05 103.238 1020.54 102.518C1020.04 101.799 1019.29 101.38 1018.31 101.264C1017.78 101.201 1017.31 101.222 1016.91 101.324C1016.51 101.426 1016.17 101.59 1015.89 101.818C1015.61 102.046 1015.39 102.327 1015.23 102.664C1015.07 102.999 1014.97 103.369 1014.92 103.774C1014.87 104.178 1014.89 104.552 1014.97 104.893C1015.05 105.235 1015.22 105.562 1015.47 105.875C1015.73 106.188 1016.08 106.495 1016.53 106.798C1016.98 107.1 1017.54 107.425 1018.22 107.771C1019.32 108.334 1020.31 108.893 1021.19 109.453C1022.08 110.013 1022.82 110.625 1023.43 111.289C1024.03 111.953 1024.47 112.695 1024.75 113.516C1025.03 114.337 1025.11 115.277 1024.98 116.337C1024.87 117.299 1024.6 118.144 1024.17 118.868C1023.74 119.594 1023.19 120.199 1022.5 120.684C1021.82 121.169 1021.03 121.529 1020.12 121.765C1019.21 122.001 1018.22 122.106 1017.15 122.078L1016.76 125.341L1013.94 125.008L1014.33 121.761C1013.36 121.546 1012.44 121.221 1011.56 120.786C1010.68 120.349 1009.93 119.781 1009.29 119.079C1008.66 118.378 1008.18 117.532 1007.87 116.541C1007.56 115.551 1007.48 114.4 1007.63 113.088L1012.75 113.693C1012.66 114.468 1012.69 115.13 1012.85 115.674C1013.01 116.22 1013.25 116.669 1013.58 117.024C1013.91 117.379 1014.3 117.647 1014.75 117.827C1015.2 118.008 1015.67 118.127 1016.15 118.184C1016.71 118.249 1017.2 118.236 1017.64 118.144C1018.08 118.051 1018.45 117.896 1018.77 117.677C1019.08 117.459 1019.33 117.187 1019.51 116.859C1019.69 116.533 1019.81 116.168 1019.86 115.763Z" fill="#016EB9"/>
<g opacity="0.5">
<path d="M776.343 187.688C780.663 183.384 780.663 176.407 776.343 172.104C772.023 167.8 765.019 167.8 760.699 172.104C756.379 176.407 756.379 183.384 760.699 187.688C765.019 191.991 772.023 191.991 776.343 187.688Z" fill="#016EB9"/>
<path d="M775.378 187.688C779.698 183.384 779.698 176.407 775.378 172.104C771.058 167.801 764.054 167.801 759.734 172.104C755.414 176.407 755.414 183.384 759.734 187.688C764.054 191.991 771.058 191.991 775.378 187.688Z" fill="#00A3FE"/>
<path d="M767.556 190.067C766.196 190.067 764.876 189.801 763.633 189.277C762.433 188.772 761.355 188.048 760.43 187.126C759.504 186.204 758.777 185.13 758.27 183.934C757.744 182.697 757.477 181.382 757.477 180.026C757.477 178.671 757.744 177.356 758.27 176.119C758.777 174.923 759.504 173.849 760.43 172.927C761.355 172.005 762.433 171.281 763.633 170.775C764.876 170.252 766.196 169.986 767.556 169.986C768.917 169.986 770.237 170.252 771.479 170.775C772.68 171.281 773.757 172.005 774.683 172.927C775.608 173.849 776.336 174.923 776.843 176.119C777.369 177.356 777.635 178.671 777.635 180.026C777.635 181.382 777.369 182.697 776.843 183.934C776.336 185.13 775.609 186.203 774.683 187.126C773.758 188.048 772.68 188.772 771.479 189.277C770.237 189.801 768.917 190.067 767.556 190.067ZM767.556 170.585C765.025 170.585 762.645 171.567 760.855 173.35C759.065 175.134 758.079 177.504 758.079 180.026C758.079 182.548 759.065 184.919 760.855 186.702C762.645 188.485 765.025 189.468 767.556 189.468C770.088 189.468 772.468 188.485 774.258 186.702C776.048 184.919 777.034 182.548 777.034 180.026C777.034 177.504 776.048 175.134 774.258 173.35C772.468 171.567 770.088 170.585 767.556 170.585Z" fill="#016EB9"/>
<path d="M768.944 182.94C768.97 182.724 768.962 182.53 768.92 182.358C768.879 182.185 768.796 182.024 768.673 181.874C768.549 181.723 768.385 181.578 768.178 181.439C767.971 181.299 767.716 181.157 767.411 181.011C766.888 180.756 766.415 180.497 765.995 180.236C765.574 179.974 765.221 179.688 764.936 179.377C764.651 179.066 764.442 178.718 764.311 178.331C764.179 177.944 764.143 177.498 764.203 176.993C764.255 176.555 764.381 176.164 764.579 175.821C764.778 175.479 765.039 175.191 765.36 174.957C765.682 174.724 766.055 174.547 766.479 174.427C766.903 174.307 767.368 174.254 767.875 174.267L768.072 172.612L769.409 172.77L769.209 174.448C769.681 174.566 770.1 174.744 770.468 174.981C770.835 175.217 771.137 175.504 771.374 175.84C771.61 176.177 771.778 176.561 771.876 176.994C771.975 177.426 771.993 177.9 771.931 178.416L769.516 178.13C769.59 177.512 769.507 177.033 769.268 176.693C769.029 176.354 768.678 176.157 768.216 176.102C767.965 176.073 767.744 176.082 767.555 176.13C767.366 176.178 767.205 176.256 767.074 176.363C766.943 176.471 766.839 176.603 766.764 176.762C766.689 176.92 766.639 177.095 766.617 177.286C766.595 177.476 766.601 177.653 766.639 177.814C766.676 177.975 766.755 178.129 766.876 178.277C766.997 178.424 767.163 178.569 767.375 178.712C767.587 178.855 767.852 179.008 768.172 179.171C768.689 179.436 769.156 179.7 769.574 179.964C769.991 180.228 770.343 180.517 770.628 180.83C770.912 181.143 771.121 181.493 771.253 181.88C771.384 182.268 771.42 182.711 771.361 183.211C771.307 183.665 771.179 184.063 770.977 184.405C770.776 184.747 770.514 185.032 770.193 185.261C769.872 185.49 769.497 185.66 769.069 185.771C768.641 185.882 768.173 185.932 767.666 185.919L767.483 187.457L766.154 187.3L766.336 185.769C765.879 185.668 765.444 185.514 765.031 185.309C764.618 185.103 764.261 184.835 763.961 184.504C763.661 184.174 763.438 183.774 763.29 183.307C763.143 182.84 763.106 182.297 763.179 181.679L765.594 181.964C765.55 182.33 765.565 182.642 765.639 182.898C765.714 183.156 765.828 183.368 765.983 183.535C766.138 183.702 766.322 183.829 766.536 183.914C766.748 183.999 766.969 184.055 767.198 184.082C767.459 184.113 767.693 184.107 767.899 184.063C768.104 184.019 768.281 183.946 768.429 183.843C768.577 183.74 768.694 183.612 768.78 183.457C768.867 183.303 768.921 183.131 768.944 182.94Z" fill="#016EB9"/>
</g>
<g opacity="0.15">
<path d="M443.832 41.269C447.339 37.7757 447.339 32.1118 443.832 28.6184C440.325 25.1251 434.639 25.1251 431.133 28.6184C427.626 32.1118 427.626 37.7756 431.133 41.269C434.639 44.7624 440.325 44.7624 443.832 41.269Z" fill="#016EB9"/>
<path d="M443.048 41.2691C446.555 37.7758 446.555 32.1119 443.048 28.6186C439.542 25.1252 433.856 25.1252 430.349 28.6186C426.842 32.1119 426.842 37.7758 430.349 41.2691C433.856 44.7625 439.542 44.7625 443.048 41.2691Z" fill="#00A3FE"/>
<path d="M436.699 43.2002C435.595 43.2002 434.523 42.9845 433.514 42.5595C432.54 42.1491 431.665 41.5616 430.914 40.8129C430.163 40.0646 429.572 39.1929 429.16 38.2221C428.734 37.2174 428.517 36.1499 428.517 35.0498C428.517 33.9497 428.734 32.8822 429.16 31.8775C429.572 30.9067 430.162 30.0355 430.914 29.2868C431.665 28.5385 432.54 27.9505 433.514 27.5401C434.523 27.1151 435.595 26.8994 436.699 26.8994C437.803 26.8994 438.875 27.1151 439.884 27.5401C440.858 27.9505 441.733 28.5381 442.484 29.2868C443.235 30.035 443.826 30.9067 444.238 31.8775C444.664 32.8822 444.881 33.9497 444.881 35.0498C444.881 36.1499 444.664 37.2174 444.238 38.2221C443.826 39.1929 443.236 40.0642 442.484 40.8129C441.733 41.5611 440.858 42.1491 439.884 42.5595C438.875 42.9845 437.803 43.2002 436.699 43.2002ZM436.699 27.3857C434.644 27.3857 432.712 28.183 431.259 29.6305C429.806 31.0779 429.005 33.0026 429.005 35.0498C429.005 37.097 429.806 39.0217 431.259 40.4692C432.712 41.9166 434.644 42.7139 436.699 42.7139C438.754 42.7139 440.686 41.9166 442.139 40.4692C443.592 39.0217 444.393 37.097 444.393 35.0498C444.393 33.0026 443.592 31.0779 442.139 29.6305C440.686 28.183 438.754 27.3857 436.699 27.3857Z" fill="#016EB9"/>
<path d="M437.825 37.4153C437.846 37.2396 437.84 37.082 437.806 36.9422C437.772 36.8023 437.705 36.6716 437.605 36.5494C437.505 36.4273 437.371 36.3097 437.204 36.1962C437.036 36.0832 436.828 35.9674 436.581 35.8489C436.156 35.6418 435.773 35.4316 435.432 35.2196C435.09 35.0071 434.803 34.7751 434.572 34.5226C434.34 34.2702 434.171 33.9873 434.064 33.6731C433.957 33.3594 433.928 32.9971 433.977 32.5871C434.019 32.2316 434.121 31.9147 434.282 31.6363C434.444 31.3585 434.655 31.1246 434.916 30.9349C435.178 30.7451 435.48 30.6016 435.824 30.5044C436.169 30.4073 436.546 30.3637 436.958 30.3741L437.118 29.0306L438.203 29.1591L438.041 30.5212C438.424 30.6175 438.764 30.7619 439.062 30.9539C439.36 31.146 439.606 31.3789 439.798 31.6518C439.99 31.9251 440.126 32.237 440.206 32.588C440.286 32.939 440.301 33.324 440.251 33.7422L438.29 33.5106C438.35 33.0084 438.283 32.6198 438.089 32.3442C437.895 32.069 437.61 31.9088 437.234 31.8643C437.031 31.8402 436.852 31.8479 436.698 31.887C436.545 31.926 436.414 31.9891 436.308 32.0763C436.201 32.1635 436.117 32.2711 436.056 32.4C435.995 32.5285 435.955 32.6702 435.937 32.825C435.918 32.9798 435.924 33.1229 435.954 33.2536C435.984 33.3844 436.049 33.5097 436.147 33.6296C436.245 33.7494 436.38 33.867 436.552 33.9828C436.724 34.0986 436.939 34.223 437.199 34.3556C437.618 34.5708 437.998 34.7851 438.337 34.9994C438.676 35.2137 438.961 35.448 439.192 35.7022C439.423 35.9565 439.592 36.2407 439.699 36.5549C439.807 36.8691 439.836 37.2291 439.787 37.635C439.744 38.0033 439.64 38.3265 439.476 38.604C439.313 38.8818 439.1 39.1134 438.839 39.2991C438.579 39.4848 438.275 39.6228 437.927 39.7132C437.579 39.8035 437.199 39.8435 436.788 39.833L436.639 41.0821L435.56 40.9545L435.709 39.7113C435.338 39.6292 434.984 39.5048 434.649 39.3381C434.313 39.171 434.024 38.9536 433.781 38.6848C433.537 38.4164 433.356 38.0923 433.236 37.7131C433.116 37.334 433.086 36.8931 433.146 36.391L435.106 36.6225C435.071 36.9195 435.083 37.1728 435.143 37.3812C435.203 37.5901 435.296 37.7622 435.422 37.8979C435.548 38.0337 435.697 38.1363 435.87 38.2053C436.043 38.2748 436.222 38.3202 436.408 38.342C436.62 38.3669 436.81 38.3619 436.977 38.3265C437.144 38.2911 437.287 38.2316 437.408 38.1481C437.528 38.0646 437.623 37.9601 437.693 37.8348C437.763 37.71 437.807 37.5701 437.825 37.4153Z" fill="#016EB9"/>
</g>
<defs>
<linearGradient id="paint0_linear_659:183" x1="720.04" y1="-283.828" x2="720.04" y2="296.75" gradientUnits="userSpaceOnUse">
<stop stop-color="#003AFF"/>
<stop offset="1" stop-color="#001660"/>
</linearGradient>
<linearGradient id="paint1_linear_659:183" x1="1440" y1="301.132" x2="-0.000122416" y2="301.132" gradientUnits="userSpaceOnUse">
<stop stop-color="#0047FF"/>
<stop offset="0.34375" stop-color="#002072"/>
<stop offset="0.713542" stop-color="#0047FF"/>
<stop offset="1" stop-color="#002175"/>
</linearGradient>
</defs>
</svg>
