<svg width="46" height="46" viewBox="0 0 46 46" fill="none" xmlns="http://www.w3.org/2000/svg">
<g clip-path="url(#clip0)">
<path d="M34.9115 36.857C32.6138 35.2671 30.3047 33.689 28.007 32.1108C26.7838 31.2747 25.5606 31.4867 24.6461 32.6879C24.0174 33.5123 23.4001 34.3485 22.7714 35.1729C22.4056 35.6557 22.1198 35.7146 21.6054 35.432C21.0567 35.114 20.508 34.8078 19.9821 34.4545C17.8787 33.0883 16.1183 31.31 14.4036 29.4963C14.3693 29.461 14.335 29.4257 14.3007 29.3786C14.2778 29.355 14.255 29.3315 14.2321 29.2844L14.2207 29.2726L12.7232 27.506C12.5974 27.4589 12.4945 27.3647 12.4031 27.2234C12.3231 27.0938 12.243 26.9761 12.163 26.8465C11.4428 25.7277 10.7112 24.6324 10.0139 23.4901C9.67097 22.9483 9.77386 22.6303 10.2768 22.2181C11.0656 21.5822 11.8658 20.9462 12.6546 20.3103C13.8206 19.3563 14.0149 18.1197 13.2033 16.8478C12.8489 16.3061 12.4945 15.7643 12.1402 15.2108C11.9916 14.9753 11.8315 14.7397 11.6829 14.4924C11.6715 14.4571 11.6486 14.4335 11.6372 14.3982L11.6143 14.3629L9.80815 11.4657C9.35089 10.8886 8.96223 10.2998 8.57356 9.69916C7.76193 8.46257 6.53877 8.17993 5.29274 8.92188C4.35537 9.49895 3.42942 10.0878 2.49205 10.6649C1.29175 11.4186 0.537276 12.5021 0.274354 13.9271C0.171471 14.4217 0.0800199 14.9164 0 15.411V17.3542C0.0457256 17.6487 0.0914513 17.9549 0.137177 18.2493C0.583002 21.2642 1.79473 23.9611 3.36084 26.505C6.24155 31.1569 9.8996 35.0786 13.9349 38.6471C16.5984 41.0025 19.4677 43.0635 22.7485 44.4296C25.0577 45.3953 27.424 45.8899 29.9389 45.5837C31.8365 45.36 33.3111 44.5238 34.2256 42.7337C34.66 41.8975 35.1745 41.0967 35.6546 40.2723C36.4319 38.9533 36.169 37.7167 34.9115 36.857ZM34.3514 39.4832C33.8141 40.4254 33.254 41.3558 32.7167 42.298C32.2366 43.1459 31.5507 43.6994 30.6019 43.8643C29.8931 43.9939 29.1844 44.0763 28.4756 44.1823C26.1093 44.0998 23.9374 43.3579 21.8569 42.298C18.576 40.6256 15.7525 38.3173 13.089 35.7617C10.4483 33.2297 7.96769 30.5209 5.85288 27.4942C4.05815 24.9269 2.5492 22.2181 1.85189 19.0972C1.48608 17.472 1.4175 15.835 1.7833 14.198C1.98907 13.2558 2.46918 12.5374 3.25795 12.0428C4.19533 11.4539 5.12127 10.8769 6.07008 10.3116C6.61879 9.98181 6.96173 10.0642 7.32753 10.6178C8.87078 12.985 10.4026 15.3639 11.9344 17.7311C12.2888 18.2846 12.243 18.6379 11.7286 19.0383C10.9399 19.6861 10.1397 20.3103 9.35089 20.9462C8.18489 21.8766 8.00199 22.9365 8.67644 24.2791C10.0368 26.9878 11.9687 29.2255 14.0378 31.3571C16.0726 33.4534 18.2445 35.3966 20.8166 36.7745C22.0626 37.434 23.1257 37.2338 23.9945 36.1032C24.0746 35.9973 24.166 35.8913 24.246 35.7735C24.7833 35.0551 25.332 34.3367 25.8693 33.6183C26.2694 33.1001 26.6123 33.0294 27.1382 33.3945C29.4473 34.9727 31.745 36.5508 34.0542 38.1407C34.6257 38.5411 34.6943 38.8826 34.3514 39.4832Z" fill="#C4C4C4"/>
<path d="M46 2.98622C46 10.9475 46 18.897 46 26.8582C46 28.3421 45.234 29.1312 43.7823 29.1312H14.1292C14.1635 29.1783 14.1978 29.2254 14.2206 29.2608L12.7231 27.4942C12.8374 27.5413 12.9632 27.5649 13.1232 27.5649C23.32 27.5531 33.5169 27.5531 43.7137 27.5531C44.3996 27.5531 44.4796 27.4824 44.4796 26.7522V3.05688C44.4796 2.33848 44.411 2.26782 43.7022 2.26782H12.2087C11.58 2.26782 11.5 2.35026 11.5 2.97444C11.5 6.61354 11.5 10.2526 11.5 13.8917C11.5 14.0448 11.5457 14.2097 11.6143 14.351L9.80811 11.4657C9.85383 11.5246 9.91099 11.5834 9.95671 11.6541V11.1712C9.95671 8.43898 9.95671 5.70671 9.95671 2.97444C9.96815 1.47876 10.7226 0.689697 12.1744 0.689697H43.7823C45.2226 0.689697 45.9885 1.49053 46 2.98622Z" fill="#007BFF"/>
<path d="M27.927 16.2589C27.4011 16.0234 26.8067 15.882 26.3609 15.5287C22.1427 12.2783 17.9588 8.98071 13.7635 5.7067C13.3062 5.34161 13.2033 4.89409 13.4777 4.51722C13.7635 4.1168 14.2321 4.10503 14.7351 4.49367C18.8504 7.70879 22.9657 10.9239 27.0696 14.139C27.7784 14.6926 28.1327 14.6926 28.8301 14.1508C32.9111 10.971 36.9806 7.77946 41.0617 4.58788C41.1188 4.54077 41.176 4.49367 41.2446 4.44656C41.7018 4.10503 42.1591 4.12858 42.4449 4.49367C42.7192 4.85875 42.6278 5.34161 42.1819 5.69492C40.7873 6.79019 39.3927 7.87367 37.998 8.96894C35.2431 11.1241 32.4881 13.2675 29.7331 15.4227C29.2073 15.8349 28.6357 16.1058 27.9613 16.1294C27.9613 16.1765 27.9498 16.2236 27.927 16.2589Z" fill="#007BFF"/>
<path d="M42.6163 24.7384C42.6278 25.4685 42.0105 25.8572 41.5075 25.5628C41.3474 25.4685 41.2103 25.3154 41.0731 25.1623C38.6153 22.4536 36.1576 19.7331 33.6998 17.0244C33.6541 16.9773 33.6198 16.9302 33.5741 16.8949C33.1854 16.4356 33.1511 15.9998 33.4826 15.6701C33.837 15.3168 34.2714 15.3639 34.6944 15.8232C36.752 18.0844 38.7982 20.3455 40.8445 22.6067C41.336 23.1485 41.8276 23.6784 42.3077 24.232C42.4563 24.4086 42.5477 24.6442 42.6163 24.7384Z" fill="#007BFF"/>
<path d="M14.2779 25.6687C13.5692 25.6452 13.2148 25.0328 13.4777 24.5263C13.5577 24.385 13.6606 24.2437 13.7749 24.1259C16.2327 21.4054 18.6904 18.6967 21.1482 15.988C21.6626 15.4227 22.1199 15.3167 22.4857 15.6936C22.8515 16.0587 22.7829 16.4944 22.2799 17.0597C19.8221 19.7802 17.3644 22.4889 14.8952 25.1976C14.7009 25.4096 14.4151 25.5627 14.2779 25.6687Z" fill="#007BFF"/>
</g>
<defs>
<clipPath id="clip0">
<rect width="46" height="45" fill="white" transform="translate(0 0.689697)"/>
</clipPath>
</defs>
</svg>
