<svg width="1440" height="576" viewBox="0 0 1440 576" fill="none" xmlns="http://www.w3.org/2000/svg">
<g clip-path="url(#clip0_544:254)">
<path d="M-0.0999756 576L-0.0999271 20.9999C107.83 73.6899 196.58 74.3999 261.14 70.2699C470.14 56.8999 551.3 -14.7301 784.41 2.86994C932.71 14.04 962.75 62.6099 1100.63 71.8C1216.28 79.7309 1332.24 61.6692 1440 18.94L1440 576L-0.0999756 576Z" fill="#001660"/>
<path d="M993.91 115.8C1109 150.28 1227.87 148.69 1342 111.17C1322.87 119.057 1303.75 126.963 1284.64 134.89C1198.9 160.2 1111.64 159.03 1026.64 131.46C1015.64 126.42 1004.71 121.24 993.91 115.8Z" fill="#C7DAFF"/>
<path d="M980.65 73.1601C1115.44 107.859 1257.02 106.261 1391 68.5301C1368.46 76.4101 1345.93 84.3168 1323.4 92.2501C1223.46 117.76 1118.57 116.577 1019.23 88.8201C1006.31 83.7401 993.41 78.6201 980.65 73.1601Z" fill="#003399"/>
<path d="M799.08 43.3398C706.7 22.6998 614.3 30.2197 526.47 65.5097C541.037 58.3097 555.597 51.0931 570.15 43.8597C636.43 19.6297 704.06 15.9397 772.59 32.7997C781.48 36.1497 790.34 39.6298 799.08 43.3398Z" fill="#C7DAFF"/>
<path d="M814.7 81.48C707.17 61.6304 596.31 70.4318 493.26 107C510.507 99.62 527.75 92.22 544.99 84.8C623 59.62 703.24 55 783.62 71.26C794 74.57 804.41 77.87 814.7 81.48Z" fill="#003399"/>
<path d="M71.84 110.42C134.247 136.92 198.81 143.766 265.53 130.96C254.383 134.073 243.24 137.196 232.1 140.33C182.04 148.21 135.23 141.98 88.98 121.33C81.33 116.61 77.9 114.45 71.84 110.42Z" fill="#C7DAFF"/>
<path d="M65.95 81.6697C138.624 109.549 217.298 118.05 294.25 106.34C281.203 109.22 268.16 112.116 255.12 115.03C196.64 122.03 141.05 114.78 86.35 92.9297C77.25 88.0697 73.17 85.8297 65.95 81.6697Z" fill="#003399"/>
</g>
<defs>
<clipPath id="clip0_544:254">
<rect width="1440.1" height="575.85" fill="white" transform="translate(1440 576) rotate(-180)"/>
</clipPath>
</defs>
</svg>
