<svg width="278" height="225" viewBox="0 0 278 225" fill="none" xmlns="http://www.w3.org/2000/svg">
<g clip-path="url(#clip0_127:253)">
<path d="M57.8522 153.553H126.892C128.762 153.553 130.282 155.073 130.282 156.943V202.013C130.282 203.883 128.762 205.403 126.892 205.403H57.8522C55.9822 205.403 54.4622 203.883 54.4622 202.013V156.943C54.4622 155.073 55.9822 153.553 57.8522 153.553Z" fill="#C4C4C4"/>
<path d="M56.8821 157.683C56.8821 156.743 57.6421 155.983 58.5721 155.983H126.162C127.092 155.983 127.852 156.743 127.852 157.683V198.073C127.852 198.543 127.472 198.923 127.002 198.923H57.7321C57.2621 198.923 56.8821 198.543 56.8821 198.073V157.683Z" fill="#F6F6F6"/>
<path d="M50.4322 203.553C50.4322 203.173 50.7422 202.863 51.1222 202.863H133.632C134.012 202.863 134.322 203.173 134.322 203.553C134.322 204.563 133.502 205.383 132.492 205.383H52.2622C51.2522 205.383 50.4322 204.563 50.4322 203.553Z" fill="#D1D7E4"/>
<path d="M243.862 0.452881H199.232C197.362 0.452881 195.852 1.97288 195.852 3.84288V31.7629C195.852 32.3829 196.022 32.9629 196.312 33.4629C196.892 34.4729 197.982 35.1529 199.232 35.1529H243.862C245.112 35.1529 246.202 34.4729 246.792 33.4629C247.082 32.9629 247.252 32.3829 247.252 31.7629V3.84288C247.252 1.97288 245.732 0.452881 243.862 0.452881ZM197.532 3.84288C197.532 2.90288 198.292 2.14288 199.232 2.14288H243.872C244.802 2.14288 245.562 2.90288 245.562 3.84288V17.6629C245.502 17.6229 245.442 17.5829 245.392 17.5329L241.762 14.0429C240.622 12.9429 238.742 13.1629 237.882 14.4929L233.522 21.2229C233.142 21.8029 232.312 21.8829 231.832 21.3829L226.792 16.1129C226.062 15.3529 224.932 15.1229 223.952 15.5429L219.592 17.4029C219.182 17.5829 218.702 17.4929 218.382 17.1729L213.822 12.5429C212.682 11.3929 210.762 11.5929 209.892 12.9429L205.302 20.0429C204.962 20.5829 204.222 20.7029 203.722 20.3029L201.302 18.3829C200.852 18.0229 200.302 17.8329 199.722 17.8329H199.112V19.2529H199.722C199.972 19.2529 200.212 19.3429 200.402 19.4929L202.812 21.4129C203.982 22.3429 205.712 22.0529 206.522 20.8029L211.102 13.7129C211.482 13.1329 212.302 13.0429 212.792 13.5329L217.352 18.1629C218.082 18.9029 219.202 19.1229 220.162 18.7129L224.522 16.8429C224.942 16.6729 225.432 16.7629 225.742 17.0929L230.782 22.3529C231.912 23.5329 233.852 23.3529 234.732 21.9829L239.092 15.2529C239.462 14.6829 240.272 14.5929 240.762 15.0629L244.382 18.5529C244.722 18.8629 245.122 19.0829 245.562 19.1829V30.0729C245.562 30.5429 245.182 30.9229 244.722 30.9229H198.382C197.912 30.9229 197.532 30.5429 197.532 30.0729V3.84288Z" fill="#C4C4C4"/>
<path d="M245.562 17.6629V19.1829C245.122 19.0829 244.722 18.8629 244.382 18.5529L240.762 15.0629C240.272 14.5929 239.462 14.6829 239.092 15.2529L234.732 21.983C233.852 23.353 231.912 23.5329 230.782 22.3529L225.742 17.0929C225.432 16.7629 224.942 16.6729 224.522 16.8429L220.162 18.7129C219.202 19.1229 218.082 18.9029 217.352 18.1629L212.792 13.5329C212.302 13.0429 211.482 13.1329 211.102 13.7129L206.522 20.8029C205.712 22.0529 203.982 22.3429 202.812 21.4129L200.402 19.493C200.212 19.343 199.972 19.2529 199.722 19.2529H199.112V17.8329H199.722C200.302 17.8329 200.852 18.0229 201.302 18.3829L203.722 20.3029C204.222 20.7029 204.962 20.5829 205.302 20.0429L209.892 12.9429C210.762 11.5929 212.682 11.3929 213.822 12.5429L218.382 17.1729C218.702 17.4929 219.182 17.583 219.592 17.403L223.952 15.5429C224.932 15.1229 226.062 15.3529 226.792 16.1129L231.832 21.3829C232.312 21.8829 233.142 21.8029 233.522 21.2229L237.882 14.4929C238.742 13.1629 240.622 12.9429 241.762 14.0429L245.392 17.5329C245.442 17.5829 245.502 17.6229 245.562 17.6629Z" fill="white"/>
<path fill-rule="evenodd" clip-rule="evenodd" d="M247.722 17.8329V19.2529H246.142C245.942 19.2529 245.752 19.2329 245.562 19.1829C245.122 19.0829 244.722 18.8629 244.382 18.5529L240.762 15.0629C240.272 14.5929 239.462 14.6829 239.092 15.2529L234.732 21.983C233.852 23.353 231.912 23.5329 230.782 22.3529L225.742 17.0929C225.432 16.7629 224.942 16.6729 224.522 16.8429L220.162 18.7129C219.202 19.1229 218.082 18.9029 217.352 18.1629L212.792 13.5329C212.302 13.0429 211.482 13.1329 211.102 13.7129L206.522 20.8029C205.712 22.0529 203.982 22.3429 202.812 21.4129L200.402 19.493C200.212 19.343 199.972 19.2529 199.722 19.2529H199.112V17.8329H199.722C200.302 17.8329 200.852 18.0229 201.302 18.3829L203.722 20.3029C204.222 20.7029 204.962 20.5829 205.302 20.0429L209.892 12.9429C210.762 11.5929 212.682 11.3929 213.822 12.5429L218.382 17.1729C218.702 17.4929 219.182 17.583 219.592 17.403L223.952 15.5429C224.932 15.1229 226.062 15.3529 226.792 16.1129L231.832 21.3829C232.312 21.8829 233.142 21.8029 233.522 21.2229L237.882 14.4929C238.742 13.1629 240.622 12.9429 241.762 14.0429L245.392 17.5329C245.442 17.5829 245.502 17.6229 245.562 17.6629C245.732 17.7729 245.932 17.8329 246.142 17.8329H247.722Z" fill="#007BFF"/>
<path d="M193.322 33.9229C193.322 33.6729 193.532 33.4629 193.782 33.4629H249.312C249.562 33.4629 249.772 33.6729 249.772 33.9229C249.772 34.6029 249.222 35.1529 248.542 35.1529H194.552C193.872 35.1529 193.322 34.6029 193.322 33.9229Z" fill="#D1D7E4"/>
<path d="M33.3922 73.4529H44.6822C47.5822 73.4529 49.9322 75.8029 49.9322 78.7029V84.6229C49.9322 87.5229 47.5822 89.8729 44.6822 89.8729H33.3922C30.4922 89.8729 28.1422 87.5229 28.1422 84.6229V78.7029C28.1422 75.8029 30.4922 73.4529 33.3922 73.4529Z" fill="#007BFF"/>
<path d="M221.392 155.453H239.952C242.852 155.453 245.202 157.803 245.202 160.703V172.093C245.202 174.993 242.852 177.343 239.952 177.343H221.392C218.492 177.343 216.142 174.993 216.142 172.093V160.703C216.142 157.803 218.492 155.453 221.392 155.453Z" fill="#007BFF"/>
<path d="M155.112 134.173H124.112V139.543H155.112V134.173Z" fill="#D1D7E4"/>
<path fill-rule="evenodd" clip-rule="evenodd" d="M189.552 51.4829H88.7522C84.0722 51.4829 80.2722 55.2829 80.2722 59.9629V125.693C80.2722 130.373 84.0722 134.173 88.7522 134.173H189.552C194.232 134.173 198.022 130.373 198.022 125.693V59.9629C198.022 55.2829 194.232 51.4829 189.552 51.4829ZM193.992 122.523C193.992 123.113 193.522 123.583 192.932 123.583H86.1722C85.5922 123.583 85.1122 123.113 85.1122 122.523V61.8929C85.1122 58.3829 87.9622 55.5329 91.4722 55.5329H187.642C191.152 55.5329 193.992 58.3829 193.992 61.8929V122.523ZM158.412 139.543H120.962C119.772 139.543 118.812 140.503 118.812 141.683C118.812 142.873 119.772 143.833 120.962 143.833H158.412C159.602 143.833 160.562 142.873 160.562 141.683C160.562 140.503 159.602 139.543 158.412 139.543Z" fill="#C4C4C4"/>
<path d="M193.322 91.9929H190.162C188.862 91.9929 187.612 91.4829 186.672 90.5729L179.622 83.7129C177.352 81.5029 173.632 81.9329 171.922 84.6029L163.392 97.9428C161.642 100.683 157.782 101.043 155.542 98.6829L145.502 88.0528C144.062 86.5228 141.812 86.0628 139.882 86.9028L131.272 90.6228C129.372 91.4428 127.152 91.0129 125.702 89.5229L116.712 80.3028C114.462 77.9928 110.652 78.3829 108.912 81.1029L99.8121 95.3728C98.2121 97.8828 94.7822 98.4528 92.4622 96.5828L88.1122 93.0828C87.2222 92.3728 86.1221 91.9829 84.9821 91.9829H83.9521" stroke="#007BFF" stroke-width="4"/>
<path fill-rule="evenodd" clip-rule="evenodd" d="M78.0921 172.243C77.3821 171.543 76.1721 171.663 75.6221 172.483L68.9021 182.623C67.7221 184.413 65.1821 184.813 63.4721 183.483L59.9321 180.743C59.6521 180.523 59.3021 180.403 58.9421 180.403H58.0421V178.373H58.9321C59.7721 178.373 60.5921 178.653 61.2521 179.163L64.7921 181.903C65.5321 182.473 66.6121 182.303 67.1221 181.533L73.8421 171.393C75.1221 169.463 77.9421 169.183 79.6021 170.823L86.3021 177.433C86.7621 177.883 87.4621 178.023 88.0621 177.773L94.4621 175.113C95.8921 174.523 97.5521 174.853 98.6121 175.933L106.002 183.453C106.712 184.173 107.932 184.063 108.492 183.223L114.882 173.603C116.142 171.703 118.892 171.403 120.572 172.973L125.892 177.953C126.192 178.233 126.582 178.383 126.992 178.383H129.302V180.413H126.992C126.032 180.413 125.102 180.053 124.412 179.403L119.092 174.423C118.372 173.753 117.192 173.883 116.652 174.693L110.262 184.313C108.972 186.263 106.112 186.523 104.462 184.843L97.0721 177.323C96.6121 176.863 95.9021 176.713 95.2921 176.973L88.8921 179.633C87.4821 180.223 85.8521 179.903 84.7821 178.853L78.0921 172.243Z" fill="#007BFF"/>
<path d="M182.792 134.113V156.303C182.792 171.303 170.572 183.423 155.572 183.303L132.572 183.113" stroke="#007BFF" stroke-width="2" stroke-linecap="round" stroke-dasharray="3 3"/>
<path d="M105.832 50.6729V44.5529C105.832 29.6129 117.972 17.5029 132.912 17.5529L194.122 17.7429" stroke="#007BFF" stroke-width="2" stroke-linecap="round" stroke-dasharray="3 3"/>
</g>
<defs>
<clipPath id="clip0_127:253">
<rect width="277" height="224" fill="white" transform="translate(0.142151 0.452881)"/>
</clipPath>
</defs>
</svg>
