<svg width="245" height="200" viewBox="0 0 245 200" fill="none" xmlns="http://www.w3.org/2000/svg">
<path d="M217.839 195.869H27.7572C14.6147 195.869 3.95749 184.249 3.95749 169.92V29.7063C3.95749 15.3772 14.6147 3.75779 27.7572 3.75779H217.818C230.961 3.75779 241.618 15.3772 241.618 29.7063V169.897C241.639 184.226 230.982 195.869 217.839 195.869Z" stroke="#C4C4C4" stroke-width="3" stroke-miterlimit="10"/>
<path d="M107.539 60.6838C102.653 60.4542 97.7032 60.1327 92.8379 59.6964C91.5532 59.5816 90.4369 60.6149 90.3316 62.0157C90.2263 63.4165 91.1741 64.6335 92.4588 64.7483C94.207 64.9091 95.9551 65.0468 97.7243 65.1617V84.6575C97.7243 86.0583 98.7563 87.1835 100.041 87.1835C101.326 87.1835 102.358 86.0583 102.358 84.6575V65.4831C104.022 65.575 105.686 65.6669 107.349 65.7587C107.392 65.7587 107.413 65.7587 107.455 65.7587C108.697 65.7587 109.708 64.7024 109.772 63.3246C109.814 61.9238 108.824 60.7527 107.539 60.6838Z" fill="#007BFF"/>
<path d="M174.263 59.6045C174.094 58.2268 172.915 57.2393 171.651 57.446C166.807 58.1579 161.878 58.7779 156.992 59.2831C155.707 59.4208 154.78 60.6379 154.907 62.0387C155.012 63.3476 156.023 64.335 157.203 64.335C157.266 64.335 157.35 64.335 157.413 64.335C159.014 64.1742 160.636 63.9905 162.257 63.8068V82.8434C162.257 84.2442 163.289 85.3694 164.574 85.3694C165.859 85.3694 166.891 84.2442 166.891 82.8434V63.2328C168.681 63.0031 170.471 62.7505 172.241 62.4979C173.546 62.2453 174.431 60.9823 174.263 59.6045Z" fill="#007BFF"/>
<path d="M149.578 68.9965V68.2387C149.578 66.0572 148.799 64.0594 147.367 62.5898C145.935 61.0972 144.018 60.3394 141.996 60.4772C140.079 60.592 138.121 60.6838 136.204 60.7527C134.961 60.7986 133.971 61.9238 133.971 63.2787V75.2196V85.1397C133.971 86.5405 135.004 87.6657 136.288 87.6657C137.573 87.6657 138.605 86.5405 138.605 85.1397V77.6537C140.311 77.6767 141.87 78.3426 143.049 79.5826C144.271 80.8456 144.945 82.6138 144.945 84.5197C144.945 85.9205 145.977 87.0457 147.261 87.0457C148.546 87.0457 149.578 85.9205 149.578 84.5197C149.578 81.213 148.399 78.1819 146.272 75.9315C146.272 75.9315 146.272 75.9315 146.25 75.9315C148.251 74.37 149.578 71.821 149.578 68.9965ZM144.945 68.9965C144.945 70.7417 143.597 72.3033 141.996 72.3951C140.88 72.464 139.742 72.5099 138.605 72.5788V65.7128C139.806 65.6669 141.027 65.598 142.228 65.5291C142.965 65.4832 143.66 65.7587 144.165 66.2639C144.65 66.7691 144.924 67.481 144.924 68.2617V68.9965H144.945Z" fill="#007BFF"/>
<path d="M120.639 61.0283C118.575 61.0283 116.638 61.8779 115.205 63.4394C113.773 65.0009 112.994 67.0676 112.994 69.2721V85.3234C112.994 86.7242 114.026 87.8494 115.311 87.8494C116.596 87.8494 117.628 86.7242 117.628 85.3234V77.7685C119.313 77.7915 120.997 77.8144 122.682 77.8144C123.019 77.8144 123.335 77.8144 123.672 77.8144V85.3923C123.672 86.7931 124.704 87.9183 125.989 87.9183C127.274 87.9183 128.306 86.7931 128.306 85.3923V69.341C128.264 64.7713 124.852 61.0512 120.639 61.0283ZM123.63 72.7625C121.629 72.7625 119.607 72.7625 117.607 72.7166V69.2721C117.607 68.4225 117.901 67.6187 118.47 67.0217C119.039 66.4017 119.797 66.0802 120.618 66.0802C122.282 66.0802 123.651 67.5498 123.651 69.341L123.63 72.7625Z" fill="#007BFF"/>
<path d="M79.211 69.1343L78.6002 69.0425C77.0206 68.8358 75.6516 67.1365 75.6516 65.3913C75.6516 64.6794 75.8833 64.0594 76.3045 63.6461C76.7468 63.2327 77.3576 63.0261 78.0316 63.1179C79.906 63.3705 81.8016 63.6002 83.6972 63.8298C84.9609 63.9676 86.1192 62.9801 86.2456 61.5794C86.372 60.2016 85.4663 58.9386 84.1816 58.8008C82.3281 58.5942 80.4536 58.3645 78.6002 58.1119C76.5783 57.8364 74.6827 58.4793 73.2295 59.8571C71.7973 61.2349 71.018 63.2098 71.018 65.3683C71.018 69.7084 74.1141 73.5203 78.0526 74.0485L78.6845 74.1403C80.2852 74.347 81.6331 75.9774 81.6331 77.6996C81.6331 78.4345 81.3804 79.0774 80.9381 79.5137C80.4958 79.95 79.885 80.1337 79.2321 80.0419C77.3786 79.7893 75.5041 79.5367 73.6507 79.2611C72.387 79.0774 71.2076 80.0419 71.0391 81.4197C70.8706 82.7975 71.7552 84.0834 73.0189 84.2671C74.8934 84.5427 76.7889 84.8183 78.6634 85.0479C78.9583 85.0938 79.2531 85.1168 79.548 85.1168C81.2119 85.1168 82.7704 84.4738 84.0131 83.3027C85.4453 81.9249 86.2667 79.8811 86.2667 77.7226C86.2667 73.4285 83.1706 69.6395 79.211 69.1343Z" fill="#007BFF"/>
<path d="M199.895 39.6954C199.389 39.2131 198.715 39.0065 198.041 39.0983C155.244 45.7347 111.73 46.6992 68.7012 41.9458C67.4375 41.808 66.3002 42.8184 66.1527 44.1962C66.0053 45.574 66.9531 46.814 68.2168 46.9747C110.719 51.6592 153.706 50.8326 196.019 44.4947V93.108C147.304 100.456 97.9349 100.456 49.2191 93.108V44.5177C52.7786 45.0458 56.3801 45.551 59.9395 46.0103C61.2243 46.171 62.3616 45.1836 62.5091 43.7828C62.6565 42.405 61.7508 41.142 60.4661 40.9813C56.0642 40.4302 51.5991 39.7872 47.2183 39.0983C46.5443 38.9835 45.8703 39.2131 45.3648 39.6954C44.8593 40.1776 44.5645 40.8665 44.5645 41.6013V95.3125C44.5645 96.5755 45.4069 97.6318 46.5653 97.8155C48.2713 98.091 49.9773 98.3436 51.6833 98.5733V173.227C51.6833 174.628 52.7154 175.753 54.0001 175.753H63.2883C64.5731 175.753 65.6051 174.628 65.6051 173.227V100.387C84.5607 102.592 103.6 103.694 122.619 103.694C141.638 103.694 160.678 102.592 179.633 100.387V122.845C179.633 124.246 180.665 125.371 181.95 125.371C183.235 125.371 184.267 124.246 184.267 122.845V99.8363C185.804 99.6526 187.363 99.4459 188.9 99.2392V170.701H184.267V131.296C184.267 129.895 183.235 128.77 181.95 128.77C180.665 128.77 179.633 129.895 179.633 131.296V173.227C179.633 174.628 180.665 175.753 181.95 175.753H191.238C192.523 175.753 193.555 174.628 193.555 173.227V98.5733C195.261 98.3207 196.967 98.0681 198.673 97.8155C199.81 97.6318 200.674 96.5755 200.674 95.3125V41.6013C200.695 40.8895 200.4 40.1776 199.895 39.6954ZM60.9926 170.701H56.359V99.2392C57.8965 99.4459 59.4551 99.6526 60.9926 99.8363V170.701Z" fill="#007BFF"/>
</svg>
