<svg width="163" height="164" viewBox="0 0 163 164" fill="none" xmlns="http://www.w3.org/2000/svg">
<g clip-path="url(#clip0_129:395)">
<path d="M58.5057 114.363L47.0987 125.815L52.7643 131.148C41.9896 141.889 31.4425 152.377 20.6425 163.169L0.28186 142.626C10.9807 131.884 21.4519 121.346 32.1254 110.63L37.1587 115.886L48.6416 104.383C36.8552 88.9948 32.176 71.4987 35.8434 52.0982C38.8027 36.3797 46.694 23.4291 59.3404 13.678C85.4678 -6.45889 121.712 -3.79259 144.425 19.7217C166.683 42.7534 168.302 79.2437 148.472 104.256C127.732 130.411 87.3901 137.623 58.5057 114.363ZM98.5694 5.75531C66.0683 5.85689 40.0926 32.0628 40.1938 64.7441C40.295 96.1811 65.9671 122.311 97.2795 122.819C130.16 123.352 156.844 96.9175 156.819 64.1347C156.768 32.0121 130.514 5.67913 98.5694 5.75531ZM20.6931 154.56C28.4833 146.739 36.3493 138.842 44.0636 131.072L31.8725 118.857L8.502 142.321L20.6931 154.56ZM52.8402 108.954C49.0463 112.788 45.3788 116.47 41.6102 120.254C41.939 120.635 42.3943 121.117 42.7484 121.498C46.5929 117.638 50.235 113.956 53.9783 110.198C53.6242 109.817 53.169 109.309 52.8402 108.954Z" fill="#C4C4C4"/>
<path d="M128.895 106.059C108.611 106.059 88.4018 106.059 68.0411 106.059C68.0158 105.449 67.9652 104.891 67.9652 104.332C67.9652 96.7902 67.9399 89.2484 67.9652 81.7065C67.9905 69.9748 76.413 61.5442 88.0982 61.5188C95.0285 61.4934 101.959 61.4934 108.914 61.5188C120.625 61.5442 129.022 69.9494 129.047 81.7065C129.072 89.6547 129.047 97.6028 129.022 105.551C129.022 105.652 128.971 105.754 128.895 106.059ZM84.4814 67.4608C78.31 68.9083 73.7825 73.8854 73.5802 79.9798C73.3526 86.709 73.5296 93.4383 73.5549 100.168C73.5549 100.269 73.6814 100.345 73.7067 100.396C90.2987 100.396 106.84 100.396 123.432 100.396C123.432 93.5398 123.483 86.8106 123.382 80.0813C123.356 78.6085 122.926 77.0849 122.345 75.7137C120.473 71.2952 117.16 68.5274 112.228 67.3593C112.025 77.8721 105.272 84.1443 98.443 90.4165C90.1975 82.2144 86.2266 79.6751 84.4814 67.4608ZM106.764 67.1561C101.149 67.1561 95.7366 67.1561 90.2228 67.1561C90.5769 73.6822 93.7132 78.5324 98.5188 82.4937C103.299 78.4308 106.461 73.6314 106.764 67.1561Z" fill="#007BFF"/>
<path d="M98.4936 55.9324C87.9212 55.9832 79.1193 47.2479 79.0687 36.6334C78.9929 25.7651 87.643 16.979 98.4177 16.9028C109.091 16.852 117.918 25.5873 117.944 36.2779C117.944 47.1463 109.294 55.8816 98.4936 55.9324ZM98.5189 22.4893C90.931 22.464 84.6837 28.6599 84.6078 36.2526C84.5573 43.9721 90.7287 50.2951 98.3671 50.3459C106.056 50.3967 112.354 44.1499 112.354 36.4811C112.379 28.7869 106.183 22.5147 98.5189 22.4893Z" fill="#007BFF"/>
</g>
<defs>
<clipPath id="clip0_129:395">
<rect width="162" height="163" fill="white" transform="translate(0.28186 0.168213)"/>
</clipPath>
</defs>
</svg>
