<svg width="1440" height="342" viewBox="0 0 1440 342" fill="none" xmlns="http://www.w3.org/2000/svg">
<g clip-path="url(#clip0)">
<path d="M-95.4098 126.967C40.0902 112.314 149.19 119.135 235.09 133.409C254.59 136.63 252.69 136.946 269.99 139.599C385.19 157.41 561.49 159.684 581.79 169.474C582.49 169.789 584.29 170.989 587.39 171.305C598.79 172.505 609.89 159.242 646.09 164.737C673.69 168.905 702.69 166.947 730.89 168.589C789.09 171.937 830.99 150.083 921.09 134.925C921.09 134.925 980.99 124.819 1055.89 122.545C1189.69 118.44 1240.69 148.189 1345.39 154.82C1408.69 158.863 1499.49 154.884 1614.79 117.682C1614.79 154.062 1614.79 190.506 1614.79 226.886C1042.89 226.886 470.89 226.886 -101.01 226.886C-99.1098 193.601 -97.2098 160.315 -95.4098 126.967Z" fill="#E7EBF4"/>
<path d="M-180.906 130.589C54.0936 166.116 190.394 161.504 307.694 145.486C389.994 134.266 490.694 113.823 603.794 114.571C746.494 115.506 753.893 146.67 902.293 151.843C1044.69 156.829 1084.69 129.28 1252.59 127.161C1369.59 125.665 1465.29 135.077 1527.59 143.179C1527.59 171.102 1527.59 199.026 1527.59 226.886C956.894 226.886 386.194 226.886 -184.606 226.886C-183.306 194.787 -182.106 162.688 -180.906 130.589Z" fill="#D0D6E7"/>
<path d="M-99.4095 149.66C-57.9095 145.842 -28.6095 147.267 -10.6095 148.976C0.190483 150.002 20.2905 152.168 34.0905 154.219C76.0905 160.374 117.79 168.352 160.89 170.973C217.89 174.45 270.39 182.485 418.19 159.804C435.89 157.41 462.19 153.991 494.19 150.287C577.79 140.599 619.59 135.698 666.29 134.672C737.19 133.02 792.49 140.314 830.19 145.386C907.99 155.929 927.29 166.642 1000.09 171.828C1042.99 174.906 1075.59 174.564 1103.69 173.025C1225.29 166.414 1246.09 143.164 1371.99 142.309C1475.19 141.625 1559.39 156.556 1613.29 168.865C1613.29 188.241 1613.29 207.559 1613.29 226.935C1042.39 226.935 471.49 226.935 -99.5095 226.935C-99.4095 201.177 -99.4095 175.418 -99.4095 149.66Z" fill="#001660"/>
</g>
<defs>
<clipPath id="clip0">
<rect width="1715.8" height="341.4" fill="white" transform="translate(-101.01 0.0429688)"/>
</clipPath>
</defs>
</svg>
