<svg width="163" height="21" viewBox="0 0 163 21" fill="none" xmlns="http://www.w3.org/2000/svg">
<path d="M6.66574 5.03783C7.66841 5.03783 8.54307 5.23516 9.28974 5.62983C10.0364 6.02449 10.6124 6.61116 11.0177 7.38983C11.4337 8.15783 11.6417 9.09116 11.6417 10.1898V16.3978H9.56174V13.5178H3.73774V16.3978H1.68974V10.1898C1.68974 9.09116 1.89241 8.15783 2.29774 7.38983C2.71374 6.61116 3.29507 6.02449 4.04174 5.62983C4.78841 5.23516 5.66307 5.03783 6.66574 5.03783ZM9.56174 11.7738V9.99783C9.56174 8.96316 9.30574 8.18449 8.79374 7.66183C8.28174 7.12849 7.56707 6.86183 6.64974 6.86183C5.73241 6.86183 5.01774 7.12849 4.50574 7.66183C3.99374 8.18449 3.73774 8.96316 3.73774 9.99783V11.7738H9.56174ZM18.2794 16.5098C17.394 16.5098 16.5994 16.3232 15.8954 15.9498C15.1914 15.5765 14.642 15.0592 14.2474 14.3978C13.8527 13.7258 13.6554 12.9685 13.6554 12.1258C13.6554 11.2832 13.8527 10.5312 14.2474 9.86983C14.642 9.20849 15.186 8.69116 15.8794 8.31783C16.5834 7.94449 17.3834 7.75783 18.2794 7.75783C19.122 7.75783 19.858 7.92849 20.4874 8.26983C21.1274 8.61116 21.6074 9.10183 21.9274 9.74183L20.3914 10.6378C20.146 10.2432 19.8367 9.94983 19.4634 9.75783C19.1007 9.55516 18.7007 9.45383 18.2634 9.45383C17.5167 9.45383 16.898 9.69916 16.4074 10.1898C15.9167 10.6698 15.6714 11.3152 15.6714 12.1258C15.6714 12.9365 15.9114 13.5872 16.3914 14.0778C16.882 14.5578 17.506 14.7978 18.2634 14.7978C18.7007 14.7978 19.1007 14.7018 19.4634 14.5098C19.8367 14.3072 20.146 14.0085 20.3914 13.6138L21.9274 14.5098C21.5967 15.1498 21.1114 15.6458 20.4714 15.9978C19.842 16.3392 19.1114 16.5098 18.2794 16.5098ZM27.4512 16.5098C26.5659 16.5098 25.7712 16.3232 25.0672 15.9498C24.3632 15.5765 23.8139 15.0592 23.4192 14.3978C23.0246 13.7258 22.8272 12.9685 22.8272 12.1258C22.8272 11.2832 23.0246 10.5312 23.4192 9.86983C23.8139 9.20849 24.3579 8.69116 25.0512 8.31783C25.7552 7.94449 26.5552 7.75783 27.4512 7.75783C28.2939 7.75783 29.0299 7.92849 29.6592 8.26983C30.2992 8.61116 30.7792 9.10183 31.0992 9.74183L29.5632 10.6378C29.3179 10.2432 29.0086 9.94983 28.6352 9.75783C28.2726 9.55516 27.8726 9.45383 27.4352 9.45383C26.6886 9.45383 26.0699 9.69916 25.5792 10.1898C25.0886 10.6698 24.8432 11.3152 24.8432 12.1258C24.8432 12.9365 25.0832 13.5872 25.5632 14.0778C26.0539 14.5578 26.6779 14.7978 27.4352 14.7978C27.8726 14.7978 28.2726 14.7018 28.6352 14.5098C29.0086 14.3072 29.3179 14.0085 29.5632 13.6138L31.0992 14.5098C30.7686 15.1498 30.2832 15.6458 29.6432 15.9978C29.0139 16.3392 28.2832 16.5098 27.4512 16.5098ZM36.5431 16.5098C35.6791 16.5098 34.9004 16.3232 34.2071 15.9498C33.5138 15.5765 32.9698 15.0592 32.5751 14.3978C32.1911 13.7258 31.9991 12.9685 31.9991 12.1258C31.9991 11.2832 32.1911 10.5312 32.5751 9.86983C32.9698 9.20849 33.5138 8.69116 34.2071 8.31783C34.9004 7.94449 35.6791 7.75783 36.5431 7.75783C37.4178 7.75783 38.2018 7.94449 38.8951 8.31783C39.5884 8.69116 40.1271 9.20849 40.5111 9.86983C40.9058 10.5312 41.1031 11.2832 41.1031 12.1258C41.1031 12.9685 40.9058 13.7258 40.5111 14.3978C40.1271 15.0592 39.5884 15.5765 38.8951 15.9498C38.2018 16.3232 37.4178 16.5098 36.5431 16.5098ZM36.5431 14.7978C37.2791 14.7978 37.8871 14.5525 38.3671 14.0618C38.8471 13.5712 39.0871 12.9258 39.0871 12.1258C39.0871 11.3258 38.8471 10.6805 38.3671 10.1898C37.8871 9.69916 37.2791 9.45383 36.5431 9.45383C35.8071 9.45383 35.1991 9.69916 34.7191 10.1898C34.2498 10.6805 34.0151 11.3258 34.0151 12.1258C34.0151 12.9258 34.2498 13.5712 34.7191 14.0618C35.1991 14.5525 35.8071 14.7978 36.5431 14.7978ZM51.2876 7.85383V16.3978H49.3836V15.3098C49.0636 15.6938 48.6636 15.9925 48.1836 16.2058C47.7036 16.4085 47.1863 16.5098 46.6316 16.5098C45.4903 16.5098 44.5889 16.1952 43.9276 15.5658C43.2769 14.9258 42.9516 13.9818 42.9516 12.7338V7.85383H44.9516V12.4618C44.9516 13.2298 45.1223 13.8058 45.4636 14.1898C45.8156 14.5632 46.3116 14.7498 46.9516 14.7498C47.6663 14.7498 48.2316 14.5312 48.6476 14.0938C49.0743 13.6458 49.2876 13.0058 49.2876 12.1738V7.85383H51.2876ZM58.7542 7.75783C59.8316 7.75783 60.6956 8.07249 61.3462 8.70183C61.9969 9.33116 62.3222 10.2645 62.3222 11.5018V16.3978H60.3222V11.7578C60.3222 11.0112 60.1462 10.4512 59.7942 10.0778C59.4422 9.69383 58.9409 9.50183 58.2902 9.50183C57.5542 9.50183 56.9729 9.72583 56.5462 10.1738C56.1196 10.6112 55.9062 11.2458 55.9062 12.0778V16.3978H53.9062V7.85383H55.8102V8.95783C56.1409 8.56316 56.5569 8.26449 57.0582 8.06183C57.5596 7.85916 58.1249 7.75783 58.7542 7.75783ZM69.6594 15.9338C69.4247 16.1258 69.1367 16.2698 68.7954 16.3658C68.4647 16.4618 68.1127 16.5098 67.7394 16.5098C66.8007 16.5098 66.0754 16.2645 65.5634 15.7738C65.0514 15.2832 64.7954 14.5685 64.7954 13.6298V5.96583H66.7954V7.91783H69.0834V9.51783H66.7954V13.5818C66.7954 13.9978 66.8967 14.3178 67.0994 14.5418C67.3127 14.7552 67.606 14.8618 67.9794 14.8618C68.4274 14.8618 68.8007 14.7445 69.0994 14.5098L69.6594 15.9338ZM84.0165 5.03783C85.3285 5.03783 86.3525 5.42183 87.0885 6.18983C87.8245 6.94716 88.1925 8.04049 88.1925 9.46983V16.3978H86.1125V9.54983C86.1125 8.66449 85.8778 7.99783 85.4085 7.54983C84.9498 7.09116 84.3472 6.86183 83.6005 6.86183C82.7685 6.86183 82.1018 7.09649 81.6005 7.56583C81.1098 8.03516 80.8645 8.75516 80.8645 9.72583V16.3978H78.7845V9.54983C78.7845 8.65383 78.5658 7.98183 78.1285 7.53383C77.7018 7.08583 77.1152 6.86183 76.3685 6.86183C75.5258 6.86183 74.8485 7.10183 74.3365 7.58183C73.8352 8.05116 73.5845 8.76583 73.5845 9.72583V16.3978H71.5045V5.19783H73.5205V6.66983C73.8618 6.14716 74.3258 5.74716 74.9125 5.46983C75.4992 5.18183 76.1765 5.03783 76.9445 5.03783C77.7338 5.03783 78.4218 5.18716 79.0085 5.48583C79.5952 5.78449 80.0378 6.20583 80.3365 6.74983C80.7098 6.20583 81.2165 5.78449 81.8565 5.48583C82.5072 5.18716 83.2272 5.03783 84.0165 5.03783ZM99.2582 7.85383V16.3978H97.3542V15.2938C97.0236 15.6992 96.6129 16.0032 96.1222 16.2058C95.6422 16.4085 95.1089 16.5098 94.5222 16.5098C93.6902 16.5098 92.9436 16.3285 92.2822 15.9658C91.6316 15.6032 91.1196 15.0912 90.7462 14.4298C90.3836 13.7685 90.2022 13.0005 90.2022 12.1258C90.2022 11.2512 90.3836 10.4885 90.7462 9.83783C91.1196 9.17649 91.6316 8.66449 92.2822 8.30183C92.9436 7.93916 93.6902 7.75783 94.5222 7.75783C95.0769 7.75783 95.5836 7.85383 96.0422 8.04583C96.5116 8.23783 96.9169 8.52049 97.2582 8.89383V7.85383H99.2582ZM94.7462 14.7978C95.4822 14.7978 96.0902 14.5525 96.5702 14.0618C97.0502 13.5712 97.2902 12.9258 97.2902 12.1258C97.2902 11.3258 97.0502 10.6805 96.5702 10.1898C96.0902 9.69916 95.4822 9.45383 94.7462 9.45383C94.0102 9.45383 93.4022 9.69916 92.9222 10.1898C92.4529 10.6805 92.2182 11.3258 92.2182 12.1258C92.2182 12.9258 92.4529 13.5712 92.9222 14.0618C93.4022 14.5525 94.0102 14.7978 94.7462 14.7978ZM106.723 7.75783C107.8 7.75783 108.664 8.07249 109.315 8.70183C109.966 9.33116 110.291 10.2645 110.291 11.5018V16.3978H108.291V11.7578C108.291 11.0112 108.115 10.4512 107.763 10.0778C107.411 9.69383 106.91 9.50183 106.259 9.50183C105.523 9.50183 104.942 9.72583 104.515 10.1738C104.088 10.6112 103.875 11.2458 103.875 12.0778V16.3978H101.875V7.85383H103.779V8.95783C104.11 8.56316 104.526 8.26449 105.027 8.06183C105.528 7.85916 106.094 7.75783 106.723 7.75783ZM121.258 7.85383V16.3978H119.354V15.2938C119.024 15.6992 118.613 16.0032 118.122 16.2058C117.642 16.4085 117.109 16.5098 116.522 16.5098C115.69 16.5098 114.944 16.3285 114.282 15.9658C113.632 15.6032 113.12 15.0912 112.746 14.4298C112.384 13.7685 112.202 13.0005 112.202 12.1258C112.202 11.2512 112.384 10.4885 112.746 9.83783C113.12 9.17649 113.632 8.66449 114.282 8.30183C114.944 7.93916 115.69 7.75783 116.522 7.75783C117.077 7.75783 117.584 7.85383 118.042 8.04583C118.512 8.23783 118.917 8.52049 119.258 8.89383V7.85383H121.258ZM116.746 14.7978C117.482 14.7978 118.09 14.5525 118.57 14.0618C119.05 13.5712 119.29 12.9258 119.29 12.1258C119.29 11.3258 119.05 10.6805 118.57 10.1898C118.09 9.69916 117.482 9.45383 116.746 9.45383C116.01 9.45383 115.402 9.69916 114.922 10.1898C114.453 10.6805 114.218 11.3258 114.218 12.1258C114.218 12.9258 114.453 13.5712 114.922 14.0618C115.402 14.5525 116.01 14.7978 116.746 14.7978ZM132.355 7.85383V15.1018C132.355 18.1098 130.819 19.6138 127.747 19.6138C126.926 19.6138 126.147 19.5072 125.411 19.2938C124.675 19.0912 124.067 18.7925 123.587 18.3978L124.483 16.8938C124.856 17.2032 125.326 17.4485 125.891 17.6298C126.467 17.8218 127.048 17.9178 127.635 17.9178C128.574 17.9178 129.262 17.7045 129.699 17.2778C130.136 16.8512 130.355 16.2005 130.355 15.3258V14.8778C130.014 15.2512 129.598 15.5338 129.107 15.7258C128.616 15.9178 128.078 16.0138 127.491 16.0138C126.68 16.0138 125.944 15.8432 125.283 15.5018C124.632 15.1498 124.115 14.6592 123.731 14.0298C123.358 13.4005 123.171 12.6805 123.171 11.8698C123.171 11.0592 123.358 10.3445 123.731 9.72583C124.115 9.09649 124.632 8.61116 125.283 8.26983C125.944 7.92849 126.68 7.75783 127.491 7.75783C128.11 7.75783 128.67 7.85916 129.171 8.06183C129.683 8.26449 130.11 8.57383 130.451 8.98983V7.85383H132.355ZM127.795 14.3178C128.552 14.3178 129.171 14.0938 129.651 13.6458C130.142 13.1872 130.387 12.5952 130.387 11.8698C130.387 11.1552 130.142 10.5738 129.651 10.1258C129.171 9.67783 128.552 9.45383 127.795 9.45383C127.027 9.45383 126.398 9.67783 125.907 10.1258C125.427 10.5738 125.187 11.1552 125.187 11.8698C125.187 12.5952 125.427 13.1872 125.907 13.6458C126.398 14.0938 127.027 14.3178 127.795 14.3178ZM139.048 14.8138C139.976 14.8138 140.75 14.5045 141.368 13.8858L142.424 15.1178C142.051 15.5765 141.571 15.9232 140.984 16.1578C140.398 16.3925 139.736 16.5098 139 16.5098C138.062 16.5098 137.235 16.3232 136.52 15.9498C135.806 15.5765 135.251 15.0592 134.856 14.3978C134.472 13.7258 134.28 12.9685 134.28 12.1258C134.28 11.2938 134.467 10.5472 134.84 9.88583C135.224 9.21383 135.747 8.69116 136.408 8.31783C137.08 7.94449 137.838 7.75783 138.68 7.75783C139.48 7.75783 140.206 7.93383 140.856 8.28583C141.518 8.62716 142.04 9.12316 142.424 9.77383C142.808 10.4138 143 11.1658 143 12.0298L136.456 13.3098C136.659 13.8005 136.984 14.1738 137.432 14.4298C137.88 14.6858 138.419 14.8138 139.048 14.8138ZM138.68 9.35783C137.944 9.35783 137.347 9.59783 136.888 10.0778C136.44 10.5578 136.216 11.2032 136.216 12.0138V12.0298L141.048 11.1018C140.91 10.5792 140.627 10.1578 140.2 9.83783C139.784 9.51783 139.278 9.35783 138.68 9.35783ZM146.826 9.10183C147.402 8.20583 148.415 7.75783 149.866 7.75783V9.66183C149.695 9.62983 149.541 9.61383 149.402 9.61383C148.623 9.61383 148.015 9.84316 147.578 10.3018C147.141 10.7498 146.922 11.4005 146.922 12.2538V16.3978H144.922V7.85383H146.826V9.10183Z" fill="white"/>
<ellipse rx="4.50439" ry="4.51246" transform="matrix(1 0 0 -1 155.905 13.4383)" fill="#007BFF"/>
</svg>
