<svg width="167" height="166" viewBox="0 0 167 166" fill="none" xmlns="http://www.w3.org/2000/svg">
<path d="M122.393 0.15918C124.816 0.595193 127.286 0.837423 129.684 1.46722C146.665 5.80313 158.267 16.2675 163.718 32.836C168.514 47.3697 166.382 61.298 157.589 73.9181C155.361 77.1155 152.454 79.8285 149.741 82.6868C148.99 83.4862 148.554 84.1644 148.554 85.3029C148.627 90.7531 148.554 96.2032 148.602 101.629C148.602 103.252 148.288 104.657 146.665 105.384C144.969 106.135 143.661 105.384 142.474 104.197C138.938 100.636 135.377 97.1237 131.84 93.5629C131.21 92.9332 130.653 92.7878 129.733 92.9574C119.172 94.8952 108.586 95.1617 98.1702 92.4002C86.7612 89.3724 77.8714 82.6142 71.4281 72.7796C65.4692 63.6718 62.9985 53.6193 64.0643 42.7674C65.3724 29.4932 71.3554 18.6655 81.7229 10.3328C89.014 4.49509 97.3951 1.22499 106.721 0.377186C106.987 0.352963 107.23 0.231849 107.472 0.15918C112.486 0.15918 117.452 0.15918 122.393 0.15918ZM142.135 94.7256C142.135 91.4555 142.377 88.6457 142.086 85.86C141.699 82.1539 143.104 79.7316 145.962 77.3336C153.738 70.7691 158.098 62.17 159.285 52.0932C160.617 40.9749 157.807 30.8981 150.855 22.1052C144.412 13.942 136.007 8.92789 125.736 7.25651C119.268 6.1907 112.728 6.43293 106.212 6.94161C102.046 7.28073 98.0491 8.41921 94.2703 10.2117C81.1415 16.4855 72.9784 26.756 70.871 41.1929C68.6425 56.4291 73.8504 69.0977 85.6954 78.8838C92.4052 84.4309 100.278 87.3134 109.022 87.6283C116.071 87.8948 123.144 88.2339 130.048 86.1992C132.058 85.6178 133.584 86.0296 134.989 87.5314C137.218 89.8811 139.543 92.1096 142.135 94.7256Z" fill="#007BFF"/>
<path d="M0.406342 76.5344C1.54482 73.4339 2.24729 70.0669 3.91867 67.2813C7.93969 60.5231 14.1892 56.7685 22.0375 56.5747C33.1316 56.284 44.2499 56.4778 55.3683 56.4778C57.5483 56.4778 59.0259 57.9312 58.9533 59.7964C58.8806 61.6615 57.403 62.9211 55.1503 62.9211C44.807 62.9454 34.4396 62.9211 24.0964 62.9211C13.8016 62.9211 6.8981 69.8731 6.8981 80.1921C6.8981 96.1066 6.8981 112.021 6.8981 127.911C6.8981 138.182 13.8501 145.11 24.1691 145.11C30.467 145.11 36.7892 145.134 43.0872 145.085C44.7828 145.061 45.9455 145.667 47.1082 146.951C49.4336 149.542 52.0497 151.892 54.7869 154.605C54.7869 152.667 54.7869 150.996 54.7869 149.3C54.8111 146.224 55.9254 145.11 59.0017 145.11C69.9989 145.11 80.9962 145.11 92.0176 145.11C102.191 145.11 109.143 138.133 109.143 127.936C109.143 121.25 109.143 114.564 109.143 107.879C109.143 107.395 109.119 106.91 109.192 106.426C109.41 104.657 110.766 103.373 112.413 103.398C114.061 103.422 115.393 104.682 115.587 106.474C115.635 106.837 115.611 107.225 115.611 107.613C115.611 114.516 115.635 121.42 115.611 128.323C115.587 141.718 105.704 151.553 92.2841 151.577C82.5707 151.601 72.8572 151.577 63.1681 151.577C62.5867 151.577 62.0054 151.577 61.2544 151.577C61.2544 155.259 61.2544 158.82 61.2544 162.356C61.2544 163.761 60.6731 164.876 59.3651 165.481C58.0328 166.087 56.8459 165.748 55.7801 164.851C55.4167 164.536 55.0776 164.197 54.7385 163.834C51.0081 160.104 47.302 156.325 43.499 152.667C42.8934 152.086 41.8518 151.65 41.004 151.626C35.2874 151.529 29.5708 151.577 23.8542 151.577C11.7669 151.553 2.80442 143.995 0.72124 132.078C0.624348 131.908 0.503233 131.739 0.406342 131.545C0.406342 113.208 0.406342 94.8712 0.406342 76.5344Z" fill="#C4C4C4"/>
<path d="M55.1018 106.958C44.2015 106.958 33.3254 106.958 22.425 106.958C21.8921 106.958 21.335 106.982 20.8021 106.909C19.1065 106.667 17.9196 105.311 17.9196 103.736C17.9196 102.162 19.1307 100.805 20.8263 100.563C21.3592 100.49 21.8921 100.515 22.4493 100.515C44.3468 100.515 66.2444 100.515 88.142 100.515C88.2388 100.515 88.3599 100.515 88.4568 100.515C91.0729 100.539 92.6474 101.726 92.6474 103.761C92.6474 105.771 91.0971 106.982 88.4568 106.982C77.3143 106.958 66.1959 106.958 55.1018 106.958Z" fill="#C4C4C4"/>
<path d="M48.7796 125.077C39.9867 125.077 31.218 125.077 22.425 125.077C21.8921 125.077 21.335 125.101 20.8021 125.028C19.1065 124.786 17.9195 123.429 17.8953 121.855C17.8953 120.28 19.1065 118.924 20.7779 118.682C21.1896 118.609 21.6257 118.633 22.0617 118.633C39.9625 118.633 57.8632 118.633 75.7398 118.633C77.4354 118.633 78.8888 118.997 79.5912 120.692C80.4875 122.872 78.9372 125.028 76.3938 125.101C73.9231 125.173 71.4281 125.125 68.9573 125.125C62.2476 125.077 55.5136 125.077 48.7796 125.077Z" fill="#C4C4C4"/>
<path d="M44.9039 82.3475C52.2919 82.3475 59.68 82.3475 67.068 82.3475C67.6009 82.3475 68.158 82.3232 68.6909 82.3959C70.3865 82.6381 71.5734 83.9946 71.5734 85.5691C71.5734 87.1436 70.3623 88.5001 68.6667 88.7423C68.1338 88.815 67.6009 88.7908 67.0437 88.7908C52.1708 88.7908 37.2737 88.7908 22.4008 88.7908C22.3039 88.7908 22.1828 88.7908 22.0859 88.7908C19.4698 88.7666 17.8953 87.5554 17.8953 85.5449C17.8953 83.5344 19.4456 82.3232 22.0859 82.3232C29.6919 82.3475 37.2979 82.3475 44.9039 82.3475Z" fill="#C4C4C4"/>
<path d="M89.3531 125.053C87.6575 125.005 86.1556 123.454 86.2041 121.783C86.2525 120.087 87.8028 118.586 89.4742 118.634C91.1698 118.682 92.6716 120.233 92.6232 121.904C92.5747 123.575 91.0245 125.077 89.3531 125.053Z" fill="#C4C4C4"/>
<path d="M112.68 53.135C112.68 51.8996 112.656 50.6642 112.68 49.4046C112.777 46.7159 114.254 44.7054 116.773 43.7849C117.282 43.5911 117.791 43.4458 118.3 43.2762C121.666 42.0651 123.629 38.6254 122.95 35.1615C122.272 31.6976 119.123 29.1784 115.635 29.2996C112.074 29.4207 109.216 32.0125 108.731 35.5733C108.659 36.0578 108.586 36.5422 108.489 37.0025C108.126 38.8192 106.794 39.8123 105.025 39.6428C103.402 39.4974 102.264 38.1894 102.191 36.4696C101.997 30.9225 106.261 25.0605 111.614 23.486C121.012 20.7246 129.733 27.4586 129.491 37.2447C129.345 42.4526 125.688 47.5637 120.649 49.2593C119.341 49.6953 119.002 50.2766 119.075 51.5362C119.172 53.3045 119.147 55.097 119.099 56.8653C119.026 59.0938 117.694 60.5714 115.829 60.5472C113.964 60.5472 112.68 59.0696 112.631 56.8411C112.631 55.6299 112.656 54.3946 112.68 53.135C112.656 53.135 112.68 53.135 112.68 53.135Z" fill="#007BFF"/>
<path d="M119.099 70.1398C119.123 71.8354 117.646 73.3372 115.901 73.3372C114.133 73.3615 112.704 71.9565 112.68 70.1883C112.656 68.4442 114.085 66.9666 115.829 66.9666C117.549 66.9424 119.075 68.4442 119.099 70.1398Z" fill="#007BFF"/>
</svg>
