<svg width="1440" height="113" viewBox="0 0 1440 113" fill="none" xmlns="http://www.w3.org/2000/svg">
<path d="M-41.0855 100.476C94.4145 115.13 203.514 108.308 289.414 94.034C308.914 90.8128 307.014 90.497 324.314 87.8443C439.514 70.0331 615.814 67.7593 636.114 57.9695C636.814 57.6537 638.614 56.4536 641.714 56.1378C653.114 54.9378 664.214 68.2014 700.414 62.7065C728.014 58.5379 757.014 60.4959 785.214 58.8537C843.414 55.5062 885.314 77.3597 975.414 92.5182C975.414 92.5182 1035.31 102.624 1110.21 104.898C1244.01 109.003 1295.01 79.2545 1399.71 72.6227C1463.01 68.5804 1553.81 72.5595 1669.11 109.761C1669.11 73.3806 1669.11 36.9371 1669.11 0.55674C1097.21 0.55674 525.214 0.55674 -46.6855 0.55674C-44.7855 33.8422 -42.8855 67.1277 -41.0855 100.476Z" fill="#004EFF" fill-opacity="0.1"/>
<path d="M-126.582 96.8539C108.418 61.3268 244.718 65.9391 362.018 81.9574C444.318 93.1765 545.018 113.62 658.118 112.872C800.818 111.937 808.218 80.7732 956.618 75.6C1099.02 70.6137 1139.02 98.1628 1306.92 100.282C1423.92 101.778 1519.62 92.3663 1581.92 84.2636C1581.92 56.3405 1581.92 28.4175 1581.92 0.556755C1011.22 0.556755 440.518 0.556755 -130.282 0.556755C-128.982 32.6558 -127.782 64.7548 -126.582 96.8539Z" fill="#0000B7" fill-opacity="0.2"/>
<path d="M-45.0853 77.7828C-3.5853 81.601 25.7147 80.1763 43.7147 78.4666C54.5147 77.4409 74.6147 75.2754 88.4147 73.2238C130.415 67.0692 172.115 59.0909 215.215 56.4695C272.215 52.9933 324.715 44.9581 472.515 67.639C490.215 70.0325 516.515 73.4518 548.515 77.1559C632.115 86.8438 673.915 91.7447 720.615 92.7705C791.515 94.4231 846.815 87.1287 884.515 82.0569C962.315 71.5142 981.615 60.8005 1054.41 55.6147C1097.31 52.5374 1129.91 52.8793 1158.01 54.418C1279.61 61.0285 1300.41 84.2794 1426.31 85.1342C1529.51 85.818 1613.71 70.8873 1667.61 58.578C1667.61 39.2023 1667.61 19.8836 1667.61 0.507866C1096.71 0.507866 525.815 0.507866 -45.1853 0.507866C-45.0853 26.2662 -45.0853 52.0245 -45.0853 77.7828Z" fill="#F6F6F6"/>
</svg>
