<svg width="56" height="56" viewBox="0 0 56 56" fill="none" xmlns="http://www.w3.org/2000/svg">
<g clip-path="url(#clip0_134:1016)">
<path d="M55.1795 16.6653C55.0503 13.7431 54.5777 11.7336 53.9006 9.99316C53.2019 8.14512 52.1275 6.49081 50.7194 5.11527C49.3436 3.71821 47.6782 2.63328 45.8514 1.94551C44.1009 1.2685 42.1018 0.795999 39.179 0.66684C36.2336 0.526919 35.2992 0.494629 27.8302 0.494629C20.3612 0.494629 19.4268 0.526919 16.4933 0.656077C13.5705 0.785236 11.5606 1.25774 9.81985 1.93475C7.97037 2.6322 6.31574 3.70745 4.93993 5.1142C3.54367 6.48974 2.45853 8.15588 1.77062 9.9824C1.09348 11.7336 0.620887 13.7312 0.491703 16.6534C0.351754 19.5982 0.319458 20.5325 0.319458 28C0.319458 35.4675 0.351754 36.4018 0.480938 39.3347C0.610122 42.257 1.08272 44.2664 1.75986 46.0069C2.45853 47.8549 3.54367 49.5092 4.94101 50.8847C6.31682 52.2818 7.98221 53.3667 9.80908 54.0545C11.5606 54.7315 13.5597 55.204 16.4825 55.3332C19.4161 55.4623 20.3516 55.4946 27.8195 55.4946C35.2874 55.4946 36.2229 55.4623 39.1564 55.3332C42.0792 55.204 44.0891 54.7315 45.8298 54.0545C49.5266 52.6252 52.4494 49.7029 53.8791 46.0069C54.5562 44.2557 55.0288 42.257 55.158 39.3347C55.2872 36.4018 55.3195 35.4664 55.3195 28C55.3195 20.5336 55.3087 19.5982 55.1795 16.6653ZM50.2264 39.1206C50.108 41.8071 49.6569 43.2569 49.2801 44.2245C48.3554 46.6204 46.4542 48.5222 44.0568 49.4468C43.0901 49.8224 41.6281 50.2745 38.9519 50.3918C36.0506 50.521 35.1797 50.5532 27.8399 50.5532C20.5001 50.5532 19.6184 50.521 16.728 50.3918C14.0409 50.2734 12.5908 49.8224 11.623 49.4468C10.4302 49.0066 9.3451 48.308 8.46342 47.3942C7.54944 46.502 6.85185 45.4278 6.41047 44.2352C6.03476 43.2687 5.58262 41.8071 5.46528 39.1313C5.3361 36.2306 5.3038 35.3599 5.3038 28.0215C5.3038 20.6832 5.3361 19.8017 5.46528 16.9118C5.5837 14.2253 6.03476 12.7755 6.41047 11.8078C6.85078 10.6153 7.54944 9.53034 8.47418 8.64884C9.36555 7.73504 10.4399 7.03758 11.6338 6.59737C12.6005 6.22173 14.0625 5.76968 16.7387 5.65128C19.64 5.52212 20.5109 5.48983 27.8507 5.48983C35.2012 5.48983 36.0721 5.52212 38.9626 5.65128C41.6497 5.76968 43.0998 6.22066 44.0676 6.59737C45.2603 7.03758 46.3455 7.73612 47.2272 8.64884C48.1411 9.54111 48.8387 10.6153 49.2801 11.8078C49.6558 12.7744 50.108 14.236 50.2264 16.9118C50.3556 19.8124 50.3879 20.6832 50.3879 28.0215C50.3879 35.3599 50.3545 36.2199 50.2264 39.1206Z" fill="#595959"/>
<path d="M27.8302 13.8711C20.0286 13.8711 13.6986 20.1988 13.6986 28C13.6986 35.8012 20.0286 42.1289 27.8302 42.1289C35.6319 42.1289 41.9619 35.8012 41.9619 28C41.9619 20.1988 35.6319 13.8711 27.8302 13.8711ZM27.8302 37.1649C22.7695 37.1649 18.6636 33.0609 18.6636 28C18.6636 22.9391 22.7695 18.8351 27.8302 18.8351C32.8921 18.8351 36.9969 22.9391 36.9969 28C36.9969 33.0609 32.8921 37.1649 27.8302 37.1649Z" fill="#595959"/>
<path d="M45.8201 13.3125C45.8201 15.1337 44.3431 16.6115 42.5205 16.6115C40.699 16.6115 39.2209 15.1347 39.2209 13.3125C39.2209 11.4903 40.698 10.0136 42.5205 10.0136C44.3431 10.0147 45.8201 11.4903 45.8201 13.3125Z" fill="#595959"/>
</g>
<defs>
<clipPath id="clip0_134:1016">
<rect width="55" height="55" fill="white" transform="translate(0.319458 0.494629)"/>
</clipPath>
</defs>
</svg>
