<svg width="56" height="56" viewBox="0 0 56 56" fill="none" xmlns="http://www.w3.org/2000/svg">
<g clip-path="url(#clip0_83:508)">
<path d="M28.7615 0.994141C29.1204 1.30897 29.2086 1.71194 29.2023 2.18418C29.1771 3.4183 29.196 4.65241 29.1897 5.88023C29.1897 6.49729 28.9063 6.831 28.4089 6.81211C27.9366 6.79952 27.6847 6.4847 27.6847 5.88023C27.6784 4.62723 27.7036 3.38052 27.6721 2.12751C27.6595 1.66787 27.7728 1.29637 28.1129 0.994141C28.327 0.994141 28.5474 0.994141 28.7615 0.994141Z" fill="#007BFF"/>
<path d="M0.934082 28.1699C1.23635 27.8299 1.60789 27.7228 2.06758 27.7291C3.32073 27.7543 4.56758 27.7354 5.82073 27.7417C6.44416 27.7417 6.76532 28.025 6.75272 28.5162C6.74013 28.9884 6.42527 29.2403 5.82073 29.2403C4.58648 29.2466 3.35222 29.2214 2.12426 29.2529C1.65197 29.2655 1.24894 29.1773 0.934082 28.8184C0.934082 28.6043 0.934082 28.3839 0.934082 28.1699Z" fill="#007BFF"/>
<path d="M28.4278 55.9941C27.0298 55.9941 25.6318 56.0004 24.2401 55.9941C22.8044 55.9878 21.8976 55.0749 21.885 53.6392C21.8787 52.89 21.9101 52.1344 21.8724 51.3851C21.8598 51.1521 21.7338 50.8688 21.5638 50.7177C20.8648 50.0817 20.1406 49.4647 19.3976 48.8728C19.0071 48.5643 18.8749 48.2054 18.8749 47.7142C18.8686 45.8379 18.9064 43.9489 18.7741 42.0789C18.5663 39.1447 17.5462 36.4624 15.8774 34.0508C14.3724 31.8785 13.327 29.5299 13.0562 26.8917C12.4328 20.8281 14.5424 15.8791 19.4668 12.309C28.8056 5.54022 42.055 11.1567 43.7741 22.5597C44.3724 26.5454 43.5474 30.254 41.2867 33.6038C39.6557 36.0153 38.497 38.6158 38.1885 41.5122C37.9996 43.2689 38.0499 45.0508 37.9996 46.8201C37.987 47.1601 38.0562 47.5127 37.9807 47.8339C37.9051 48.1739 37.7729 48.5643 37.5336 48.7909C36.8346 49.4584 36.06 50.0376 35.3421 50.6925C35.1595 50.8562 35.021 51.1521 35.0084 51.3977C34.9643 52.1281 34.9958 52.8648 34.9895 53.6015C34.9832 55.0749 34.0764 55.9878 32.6217 55.9941C31.2238 56.0004 29.8258 55.9941 28.4278 55.9941ZM36.4693 43.1682C36.5323 42.5763 36.5701 42.0033 36.6457 41.4429C37.0676 38.2821 38.2326 35.4172 40.021 32.7789C42.2376 29.5047 42.9618 25.8779 42.1368 22.0245C40.361 13.732 31.9542 8.98441 23.9064 11.6541C17.6784 13.7257 13.6167 20.2803 14.5361 26.728C14.8761 29.1206 15.7766 31.2552 17.1431 33.2323C18.7804 35.5935 19.7817 38.2128 20.1784 41.0588C20.2729 41.7577 20.3421 42.4629 20.4177 43.1619C25.7955 43.1682 31.123 43.1682 36.4693 43.1682ZM23.39 51.3977C23.39 52.1722 23.3837 52.8837 23.39 53.5952C23.3963 54.25 23.6356 54.4893 24.3031 54.4893C25.7137 54.4956 27.1306 54.4893 28.5411 54.4893C29.9013 54.4893 31.2615 54.483 32.6217 54.4893C33.0751 54.4893 33.4341 54.3256 33.4593 53.8533C33.5033 53.0411 33.4719 52.2225 33.4719 51.3914C30.0965 51.3977 26.7779 51.3977 23.39 51.3977ZM20.4114 46.499C25.8018 46.499 31.1293 46.499 36.4505 46.499C36.4505 45.8819 36.4505 45.3027 36.4505 44.736C31.0789 44.736 25.7578 44.736 20.4114 44.736C20.4114 45.3405 20.4114 45.9071 20.4114 46.499ZM20.7892 48.0668C21.463 48.6398 22.0361 49.1498 22.6406 49.6158C22.8169 49.7543 23.0814 49.855 23.3081 49.855C26.7401 49.8676 30.1784 49.8676 33.6104 49.8613C33.7615 49.8613 33.9567 49.855 34.0638 49.7669C34.725 49.238 35.3673 48.6839 36.1041 48.0605C30.953 48.0668 25.9341 48.0668 20.7892 48.0668Z" fill="#C4C4C4"/>
<path d="M53.0687 27.7417C53.7299 27.7417 54.3911 27.7354 55.0523 27.7417C55.5876 27.748 55.9213 28.0314 55.9402 28.4658C55.9528 28.9255 55.6065 29.234 55.046 29.2403C53.6858 29.2466 52.3319 29.2466 50.9717 29.2403C50.4238 29.234 50.1216 28.9507 50.1216 28.4847C50.1216 28.0251 50.4301 27.748 50.978 27.7417C51.6707 27.7354 52.3697 27.7417 53.0687 27.7417Z" fill="#007BFF"/>
<path d="M9.46051 8.71997C9.74388 8.89627 9.98318 8.99702 10.1469 9.16073C11.1041 10.0989 12.0487 11.0434 12.9933 12.0005C13.3963 12.4097 13.4278 12.8568 13.1066 13.1779C12.7854 13.499 12.3383 13.4549 11.929 13.052C10.9655 12.0949 9.98947 11.1504 9.06378 10.1556C8.88746 9.96668 8.80559 9.5637 8.86227 9.29925C8.91265 9.08517 9.22751 8.93405 9.46051 8.71997Z" fill="#007BFF"/>
<path d="M44.2151 13.4549C44.0262 13.3038 43.7302 13.1842 43.6546 12.9827C43.5728 12.756 43.5791 12.353 43.7302 12.1956C44.7629 11.1063 45.8272 10.0485 46.904 9.0096C47.2 8.72625 47.5715 8.76403 47.8675 9.05367C48.1823 9.3622 48.2201 9.74629 47.9178 10.0611C46.8851 11.1252 45.8335 12.1704 44.7755 13.2094C44.6559 13.3164 44.4544 13.3479 44.2151 13.4549Z" fill="#007BFF"/>
<path d="M35.7516 22.396C36.0728 23.2271 36.331 23.9323 36.6269 24.6186C36.6836 24.7572 36.8788 24.8957 37.0299 24.9146C37.3826 24.9586 37.7478 24.9209 38.1005 24.9335C38.5728 24.9523 38.8373 25.2231 38.8436 25.6827C38.8624 26.5265 38.8624 27.3639 38.8436 28.2076C38.831 28.6673 38.535 29.0073 38.0879 28.9254C36.9544 28.7114 36.4506 29.2277 36.2302 30.2666C36.1546 30.6381 35.9027 30.9718 35.6635 31.4503C35.9594 31.7085 36.3058 31.9667 36.608 32.2689C37.03 32.697 37.0237 33.0497 36.608 33.4841C36.0728 34.0382 35.5312 34.586 34.9771 35.1212C34.5677 35.5179 34.171 35.5242 33.7554 35.1149C33.4531 34.8127 33.1823 34.479 32.9493 34.2082C32.0551 34.5797 31.2806 34.9008 30.4493 35.2534C30.4493 35.6249 30.4619 36.0468 30.4493 36.475C30.4305 37.0605 30.1786 37.3376 29.5992 37.3565C28.831 37.3817 28.0564 37.3754 27.2881 37.3565C26.671 37.3439 26.3436 37.0605 26.4191 36.4561C26.5451 35.4801 26.2428 34.9386 25.2289 34.7749C24.8259 34.7119 24.4544 34.4286 23.9128 34.1641C23.6798 34.4412 23.4216 34.7875 23.1257 35.0897C22.6975 35.5179 22.2881 35.5116 21.8599 35.1023C21.3058 34.5671 20.7642 34.0256 20.2289 33.4715C19.8385 33.0622 19.7881 32.6467 20.2352 32.3067C21.0602 31.6833 21.2365 31.0348 20.5879 30.1973C20.4934 30.0777 20.4619 29.9014 20.4116 29.7503C20.1219 28.9443 20.1219 28.9443 19.2403 28.9443C18.1572 28.9443 18.0123 28.7932 18.0123 27.7039C18.0123 27.0617 18.006 26.4131 18.0186 25.7709C18.0312 25.2105 18.2894 24.9523 18.8436 24.9335C19.2718 24.9209 19.7 24.9335 20.0904 24.9335C20.4367 24.1023 20.7642 23.309 21.142 22.3897C20.8964 22.1756 20.569 21.9237 20.2793 21.6341C19.8259 21.1807 19.8259 20.8344 20.2604 20.3811C20.7957 19.827 21.3373 19.2855 21.8914 18.7503C22.2818 18.3725 22.7478 18.3221 23.0564 18.744C23.6672 19.5751 24.234 19.5185 25.1471 19.1344C26.0665 18.744 26.5954 18.404 26.4254 17.321C26.3436 16.8236 26.7025 16.5402 27.2315 16.5339C28.0375 16.515 28.8435 16.515 29.6496 16.5339C30.1723 16.5465 30.5186 16.8361 30.4367 17.3399C30.2604 18.3977 30.7768 18.7251 31.6773 19.1218C32.603 19.5311 33.1949 19.5814 33.8184 18.7377C34.1143 18.3347 34.574 18.3788 34.9456 18.7314C35.5249 19.2918 36.098 19.8585 36.6521 20.4377C37.0174 20.8218 37.0174 21.1807 36.6458 21.5711C36.3561 21.8796 36.0224 22.1504 35.7516 22.396ZM19.5488 27.4458C19.9456 27.4458 20.3171 27.4458 20.6886 27.4458C21.142 27.4458 21.4506 27.6598 21.5388 28.1069C21.7277 29.1458 22.1307 30.0903 22.7226 30.9592C22.9808 31.3307 22.943 31.7022 22.6156 32.0296C22.3385 32.3004 22.0551 32.5648 21.797 32.8104C22.0677 33.0874 22.2881 33.3141 22.5526 33.5849C22.8297 33.2952 23.1005 33.0056 23.3776 32.7285C23.6861 32.42 24.0325 32.3759 24.3977 32.6278C25.2667 33.226 26.2113 33.6163 27.2504 33.8115C27.6975 33.8934 27.9305 34.1767 27.9242 34.6427C27.9179 35.0268 27.9242 35.4171 27.9242 35.8138C28.3083 35.8138 28.6231 35.8138 28.9191 35.8138C28.9443 35.7383 28.9632 35.7068 28.9632 35.6753C28.9695 35.3731 28.9695 35.0645 28.9695 34.7623C28.9758 34.1138 29.1647 33.9689 29.7755 33.7612C30.6446 33.4652 31.5073 33.1126 32.3322 32.7096C32.9493 32.4074 33.1572 32.3696 33.6483 32.8796C33.8813 33.1189 34.064 33.4149 34.2718 33.6919C34.5362 33.44 34.6559 33.333 34.7629 33.2197C34.87 33.1063 34.9771 32.9867 35.1093 32.8419C34.8637 32.6089 34.6433 32.4074 34.4292 32.1933C33.8876 31.6518 33.9191 31.4503 34.2529 30.7892C34.6622 29.9644 35.0022 29.1017 35.3045 28.2328C35.4997 27.6661 35.6697 27.4584 36.2806 27.4458C36.6332 27.4395 36.9796 27.4458 37.3259 27.4458C37.3259 27.068 37.3259 26.772 37.3259 26.4383C36.9229 26.4383 36.5451 26.4446 36.1735 26.4383C35.7201 26.4257 35.4242 26.1991 35.3423 25.752C35.1597 24.7131 34.7629 23.7686 34.171 22.8997C33.9128 22.5219 33.9506 22.1504 34.2907 21.8356C34.5614 21.5774 34.8448 21.3381 35.166 21.0548C34.8637 20.7652 34.637 20.5511 34.2844 20.2237C34.0514 20.507 33.8373 20.7966 33.598 21.0611C33.2642 21.4389 32.8738 21.4893 32.4519 21.1933C31.6017 20.5952 30.6634 20.2237 29.6496 20.0285C29.1647 19.934 28.9506 19.6444 28.9632 19.1596C28.9695 18.807 28.9632 18.4543 28.9632 18.0766C28.5854 18.0766 28.2642 18.0766 27.9116 18.0766C27.9116 18.4858 27.9116 18.8447 27.9116 19.1973C27.9179 19.657 27.6912 19.9403 27.2378 20.0222C26.205 20.2174 25.2541 20.6078 24.3851 21.2122C24.0073 21.4767 23.642 21.4389 23.3272 21.1052C23.069 20.8344 22.836 20.5385 22.6219 20.2866C22.2818 20.5889 22.0362 20.8029 21.7592 21.0485C22.0362 21.3067 22.2755 21.5207 22.5022 21.7537C22.9556 22.2134 22.9242 22.4463 22.6408 23.0382C22.2315 23.8819 21.8725 24.7572 21.5703 25.645C21.3687 26.2368 21.205 26.4383 20.5564 26.4446C20.2226 26.4509 19.8889 26.4446 19.5488 26.4446C19.5488 26.8035 19.5488 27.0995 19.5488 27.4458Z" fill="#007BFF"/>
<path d="M19.5486 27.4458C19.5486 27.0932 19.5486 26.7973 19.5486 26.4321C19.8886 26.4321 20.2224 26.4384 20.5561 26.4321C21.2048 26.4258 21.3685 26.218 21.57 25.6324C21.8723 24.7446 22.2312 23.8694 22.6405 23.0256C22.9239 22.4401 22.9617 22.2071 22.502 21.7412C22.2753 21.5145 22.036 21.3004 21.7589 21.0359C22.036 20.7904 22.2816 20.5763 22.6216 20.2741C22.8357 20.5259 23.0687 20.8219 23.3269 21.0926C23.6418 21.4263 24.007 21.4641 24.3849 21.1997C25.2476 20.6015 26.1985 20.2048 27.2375 20.0096C27.6909 19.9215 27.9113 19.6444 27.9113 19.1848C27.9113 18.8259 27.9113 18.4733 27.9113 18.064C28.2639 18.064 28.5851 18.064 28.9629 18.064C28.9629 18.4355 28.9692 18.7944 28.9629 19.147C28.9503 19.6318 29.1707 19.9278 29.6493 20.0159C30.6632 20.2111 31.6015 20.5826 32.4516 21.1808C32.8735 21.4767 33.2639 21.42 33.5977 21.0485C33.837 20.7841 34.0511 20.4944 34.2841 20.2111C34.6304 20.5385 34.8634 20.7589 35.1657 21.0422C34.8446 21.3256 34.5612 21.5712 34.2904 21.823C33.9566 22.1378 33.9189 22.5093 34.1707 22.8871C34.7627 23.756 35.1594 24.7005 35.342 25.7394C35.4239 26.1865 35.7199 26.4195 36.1733 26.4258C36.5448 26.4321 36.9163 26.4258 37.3257 26.4258C37.3257 26.7658 37.3257 27.0554 37.3257 27.4332C36.9793 27.4332 36.6267 27.4269 36.2803 27.4332C35.6695 27.4458 35.4995 27.6536 35.3043 28.2203C35.002 29.0892 34.6619 29.9581 34.2526 30.7766C33.9189 31.4378 33.8874 31.6393 34.4289 32.1808C34.643 32.3948 34.8697 32.6026 35.109 32.8293C34.9768 32.9741 34.876 33.0938 34.7627 33.2071C34.6493 33.3204 34.5297 33.4275 34.2715 33.6793C34.0637 33.4023 33.8811 33.1126 33.6481 32.8671C33.1569 32.3571 32.9491 32.3948 32.332 32.6971C31.507 33.1001 30.6443 33.4527 29.7753 33.7486C29.1582 33.9564 28.9755 34.1012 28.9692 34.7497C28.9629 35.052 28.9629 35.3605 28.9629 35.6627C28.9629 35.6942 28.944 35.732 28.9189 35.8013C28.6229 35.8013 28.308 35.8013 27.9239 35.8013C27.9239 35.4046 27.9176 35.0142 27.9239 34.6301C27.9302 34.1642 27.7035 33.8808 27.2501 33.799C26.2174 33.6038 25.2665 33.2134 24.3974 32.6152C24.0322 32.3634 23.6859 32.4074 23.3773 32.716C23.1002 32.993 22.8357 33.2827 22.5524 33.5723C22.2879 33.3015 22.0738 33.0749 21.7967 32.7978C22.0549 32.5523 22.3383 32.2878 22.6153 32.0171C22.9428 31.6959 22.9806 31.3244 22.7224 30.9466C22.1304 30.0777 21.7274 29.1333 21.5385 28.0943C21.4566 27.641 21.1418 27.4332 20.6884 27.4332C20.3168 27.4458 19.9453 27.4458 19.5486 27.4458ZM28.4151 32.1934C31.3307 32.1934 33.6985 29.8636 33.7111 26.9736C33.7236 24.0079 31.3811 21.6404 28.4277 21.6278C25.5435 21.6152 23.1758 23.9827 23.1632 26.8791C23.1506 29.8196 25.4932 32.1871 28.4151 32.1934Z" fill="white"/>
<path d="M28.4152 32.1933C25.4933 32.1933 23.1444 29.8195 23.157 26.8854C23.1696 23.9827 25.5374 21.6215 28.4215 21.6341C31.3749 21.6467 33.7175 24.0142 33.7049 26.9798C33.6986 29.8636 31.3308 32.1933 28.4152 32.1933ZM24.6684 26.9169C24.6684 29.0199 26.3623 30.7136 28.453 30.6948C30.5563 30.6759 32.2187 28.9947 32.2124 26.8917C32.2062 24.8264 30.5248 23.1452 28.453 23.1327C26.3623 23.1201 24.6684 24.8201 24.6684 26.9169Z" fill="#007BFF"/>
<path d="M24.6682 26.9169C24.6682 24.8201 26.3685 23.1264 28.4529 23.1327C30.5247 23.1453 32.206 24.8264 32.2123 26.8917C32.2186 29.001 30.5561 30.6822 28.4529 30.6948C26.3622 30.7137 24.6619 29.0136 24.6682 26.9169Z" fill="white"/>
</g>
<defs>
<clipPath id="clip0_83:508">
<rect width="55" height="55" fill="white" transform="translate(0.934082 0.994141)"/>
</clipPath>
</defs>
</svg>
