<svg width="163" height="21" viewBox="0 0 163 21" fill="none" xmlns="http://www.w3.org/2000/svg">
<path d="M7.1528 5.03783C8.15547 5.03783 9.03013 5.23516 9.7768 5.62983C10.5235 6.02449 11.0995 6.61116 11.5048 7.38983C11.9208 8.15783 12.1288 9.09116 12.1288 10.1898V16.3978H10.0488V13.5178H4.2248V16.3978H2.1768V10.1898C2.1768 9.09116 2.37947 8.15783 2.7848 7.38983C3.2008 6.61116 3.78213 6.02449 4.5288 5.62983C5.27547 5.23516 6.15013 5.03783 7.1528 5.03783ZM10.0488 11.7738V9.99783C10.0488 8.96316 9.7928 8.18449 9.2808 7.66183C8.7688 7.12849 8.05413 6.86183 7.1368 6.86183C6.21947 6.86183 5.5048 7.12849 4.9928 7.66183C4.4808 8.18449 4.2248 8.96316 4.2248 9.99783V11.7738H10.0488ZM18.7664 16.5098C17.8811 16.5098 17.0864 16.3232 16.3824 15.9498C15.6784 15.5765 15.1291 15.0592 14.7344 14.3978C14.3398 13.7258 14.1424 12.9685 14.1424 12.1258C14.1424 11.2832 14.3398 10.5312 14.7344 9.86983C15.1291 9.20849 15.6731 8.69116 16.3664 8.31783C17.0704 7.94449 17.8704 7.75783 18.7664 7.75783C19.6091 7.75783 20.3451 7.92849 20.9744 8.26983C21.6144 8.61116 22.0944 9.10183 22.4144 9.74183L20.8784 10.6378C20.6331 10.2432 20.3238 9.94983 19.9504 9.75783C19.5878 9.55516 19.1878 9.45383 18.7504 9.45383C18.0038 9.45383 17.3851 9.69916 16.8944 10.1898C16.4038 10.6698 16.1584 11.3152 16.1584 12.1258C16.1584 12.9365 16.3984 13.5872 16.8784 14.0778C17.3691 14.5578 17.9931 14.7978 18.7504 14.7978C19.1878 14.7978 19.5878 14.7018 19.9504 14.5098C20.3238 14.3072 20.6331 14.0085 20.8784 13.6138L22.4144 14.5098C22.0838 15.1498 21.5984 15.6458 20.9584 15.9978C20.3291 16.3392 19.5984 16.5098 18.7664 16.5098ZM27.9383 16.5098C27.053 16.5098 26.2583 16.3232 25.5543 15.9498C24.8503 15.5765 24.301 15.0592 23.9063 14.3978C23.5116 13.7258 23.3143 12.9685 23.3143 12.1258C23.3143 11.2832 23.5116 10.5312 23.9063 9.86983C24.301 9.20849 24.845 8.69116 25.5383 8.31783C26.2423 7.94449 27.0423 7.75783 27.9383 7.75783C28.781 7.75783 29.517 7.92849 30.1463 8.26983C30.7863 8.61116 31.2663 9.10183 31.5863 9.74183L30.0503 10.6378C29.805 10.2432 29.4956 9.94983 29.1223 9.75783C28.7596 9.55516 28.3596 9.45383 27.9223 9.45383C27.1756 9.45383 26.557 9.69916 26.0663 10.1898C25.5756 10.6698 25.3303 11.3152 25.3303 12.1258C25.3303 12.9365 25.5703 13.5872 26.0503 14.0778C26.541 14.5578 27.165 14.7978 27.9223 14.7978C28.3596 14.7978 28.7596 14.7018 29.1223 14.5098C29.4956 14.3072 29.805 14.0085 30.0503 13.6138L31.5863 14.5098C31.2556 15.1498 30.7703 15.6458 30.1303 15.9978C29.501 16.3392 28.7703 16.5098 27.9383 16.5098ZM37.0302 16.5098C36.1662 16.5098 35.3875 16.3232 34.6942 15.9498C34.0008 15.5765 33.4568 15.0592 33.0622 14.3978C32.6782 13.7258 32.4862 12.9685 32.4862 12.1258C32.4862 11.2832 32.6782 10.5312 33.0622 9.86983C33.4568 9.20849 34.0008 8.69116 34.6942 8.31783C35.3875 7.94449 36.1662 7.75783 37.0302 7.75783C37.9048 7.75783 38.6888 7.94449 39.3822 8.31783C40.0755 8.69116 40.6142 9.20849 40.9982 9.86983C41.3928 10.5312 41.5902 11.2832 41.5902 12.1258C41.5902 12.9685 41.3928 13.7258 40.9982 14.3978C40.6142 15.0592 40.0755 15.5765 39.3822 15.9498C38.6888 16.3232 37.9048 16.5098 37.0302 16.5098ZM37.0302 14.7978C37.7662 14.7978 38.3742 14.5525 38.8542 14.0618C39.3342 13.5712 39.5742 12.9258 39.5742 12.1258C39.5742 11.3258 39.3342 10.6805 38.8542 10.1898C38.3742 9.69916 37.7662 9.45383 37.0302 9.45383C36.2942 9.45383 35.6862 9.69916 35.2062 10.1898C34.7368 10.6805 34.5022 11.3258 34.5022 12.1258C34.5022 12.9258 34.7368 13.5712 35.2062 14.0618C35.6862 14.5525 36.2942 14.7978 37.0302 14.7978ZM51.7747 7.85383V16.3978H49.8707V15.3098C49.5507 15.6938 49.1507 15.9925 48.6707 16.2058C48.1907 16.4085 47.6733 16.5098 47.1187 16.5098C45.9773 16.5098 45.076 16.1952 44.4147 15.5658C43.764 14.9258 43.4387 13.9818 43.4387 12.7338V7.85383H45.4387V12.4618C45.4387 13.2298 45.6093 13.8058 45.9507 14.1898C46.3027 14.5632 46.7987 14.7498 47.4387 14.7498C48.1533 14.7498 48.7187 14.5312 49.1347 14.0938C49.5613 13.6458 49.7747 13.0058 49.7747 12.1738V7.85383H51.7747ZM59.2413 7.75783C60.3186 7.75783 61.1826 8.07249 61.8333 8.70183C62.484 9.33116 62.8093 10.2645 62.8093 11.5018V16.3978H60.8093V11.7578C60.8093 11.0112 60.6333 10.4512 60.2813 10.0778C59.9293 9.69383 59.428 9.50183 58.7773 9.50183C58.0413 9.50183 57.46 9.72583 57.0333 10.1738C56.6066 10.6112 56.3933 11.2458 56.3933 12.0778V16.3978H54.3933V7.85383H56.2973V8.95783C56.628 8.56316 57.044 8.26449 57.5453 8.06183C58.0466 7.85916 58.612 7.75783 59.2413 7.75783ZM70.1464 15.9338C69.9118 16.1258 69.6238 16.2698 69.2824 16.3658C68.9518 16.4618 68.5998 16.5098 68.2264 16.5098C67.2878 16.5098 66.5624 16.2645 66.0504 15.7738C65.5384 15.2832 65.2824 14.5685 65.2824 13.6298V5.96583H67.2824V7.91783H69.5704V9.51783H67.2824V13.5818C67.2824 13.9978 67.3838 14.3178 67.5864 14.5418C67.7998 14.7552 68.0931 14.8618 68.4664 14.8618C68.9144 14.8618 69.2878 14.7445 69.5864 14.5098L70.1464 15.9338ZM84.5035 5.03783C85.8155 5.03783 86.8396 5.42183 87.5756 6.18983C88.3116 6.94716 88.6796 8.04049 88.6796 9.46983V16.3978H86.5996V9.54983C86.5996 8.66449 86.3649 7.99783 85.8955 7.54983C85.4369 7.09116 84.8342 6.86183 84.0875 6.86183C83.2555 6.86183 82.5889 7.09649 82.0875 7.56583C81.5969 8.03516 81.3515 8.75516 81.3515 9.72583V16.3978H79.2715V9.54983C79.2715 8.65383 79.0529 7.98183 78.6155 7.53383C78.1889 7.08583 77.6022 6.86183 76.8555 6.86183C76.0129 6.86183 75.3355 7.10183 74.8235 7.58183C74.3222 8.05116 74.0715 8.76583 74.0715 9.72583V16.3978H71.9915V5.19783H74.0075V6.66983C74.3489 6.14716 74.8129 5.74716 75.3995 5.46983C75.9862 5.18183 76.6635 5.03783 77.4315 5.03783C78.2209 5.03783 78.9089 5.18716 79.4955 5.48583C80.0822 5.78449 80.5249 6.20583 80.8235 6.74983C81.1969 6.20583 81.7035 5.78449 82.3435 5.48583C82.9942 5.18716 83.7142 5.03783 84.5035 5.03783ZM99.7453 7.85383V16.3978H97.8413V15.2938C97.5106 15.6992 97.1 16.0032 96.6093 16.2058C96.1293 16.4085 95.596 16.5098 95.0093 16.5098C94.1773 16.5098 93.4306 16.3285 92.7693 15.9658C92.1186 15.6032 91.6066 15.0912 91.2333 14.4298C90.8706 13.7685 90.6893 13.0005 90.6893 12.1258C90.6893 11.2512 90.8706 10.4885 91.2333 9.83783C91.6066 9.17649 92.1186 8.66449 92.7693 8.30183C93.4306 7.93916 94.1773 7.75783 95.0093 7.75783C95.564 7.75783 96.0706 7.85383 96.5293 8.04583C96.9986 8.23783 97.404 8.52049 97.7453 8.89383V7.85383H99.7453ZM95.2333 14.7978C95.9693 14.7978 96.5773 14.5525 97.0573 14.0618C97.5373 13.5712 97.7773 12.9258 97.7773 12.1258C97.7773 11.3258 97.5373 10.6805 97.0573 10.1898C96.5773 9.69916 95.9693 9.45383 95.2333 9.45383C94.4973 9.45383 93.8893 9.69916 93.4093 10.1898C92.94 10.6805 92.7053 11.3258 92.7053 12.1258C92.7053 12.9258 92.94 13.5712 93.4093 14.0618C93.8893 14.5525 94.4973 14.7978 95.2333 14.7978ZM107.21 7.75783C108.287 7.75783 109.151 8.07249 109.802 8.70183C110.453 9.33116 110.778 10.2645 110.778 11.5018V16.3978H108.778V11.7578C108.778 11.0112 108.602 10.4512 108.25 10.0778C107.898 9.69383 107.397 9.50183 106.746 9.50183C106.01 9.50183 105.429 9.72583 105.002 10.1738C104.575 10.6112 104.362 11.2458 104.362 12.0778V16.3978H102.362V7.85383H104.266V8.95783C104.597 8.56316 105.013 8.26449 105.514 8.06183C106.015 7.85916 106.581 7.75783 107.21 7.75783ZM121.745 7.85383V16.3978H119.841V15.2938C119.511 15.6992 119.1 16.0032 118.609 16.2058C118.129 16.4085 117.596 16.5098 117.009 16.5098C116.177 16.5098 115.431 16.3285 114.769 15.9658C114.119 15.6032 113.607 15.0912 113.233 14.4298C112.871 13.7685 112.689 13.0005 112.689 12.1258C112.689 11.2512 112.871 10.4885 113.233 9.83783C113.607 9.17649 114.119 8.66449 114.769 8.30183C115.431 7.93916 116.177 7.75783 117.009 7.75783C117.564 7.75783 118.071 7.85383 118.529 8.04583C118.999 8.23783 119.404 8.52049 119.745 8.89383V7.85383H121.745ZM117.233 14.7978C117.969 14.7978 118.577 14.5525 119.057 14.0618C119.537 13.5712 119.777 12.9258 119.777 12.1258C119.777 11.3258 119.537 10.6805 119.057 10.1898C118.577 9.69916 117.969 9.45383 117.233 9.45383C116.497 9.45383 115.889 9.69916 115.409 10.1898C114.94 10.6805 114.705 11.3258 114.705 12.1258C114.705 12.9258 114.94 13.5712 115.409 14.0618C115.889 14.5525 116.497 14.7978 117.233 14.7978ZM132.842 7.85383V15.1018C132.842 18.1098 131.306 19.6138 128.234 19.6138C127.413 19.6138 126.634 19.5072 125.898 19.2938C125.162 19.0912 124.554 18.7925 124.074 18.3978L124.97 16.8938C125.343 17.2032 125.813 17.4485 126.378 17.6298C126.954 17.8218 127.535 17.9178 128.122 17.9178C129.061 17.9178 129.749 17.7045 130.186 17.2778C130.623 16.8512 130.842 16.2005 130.842 15.3258V14.8778C130.501 15.2512 130.085 15.5338 129.594 15.7258C129.103 15.9178 128.565 16.0138 127.978 16.0138C127.167 16.0138 126.431 15.8432 125.77 15.5018C125.119 15.1498 124.602 14.6592 124.218 14.0298C123.845 13.4005 123.658 12.6805 123.658 11.8698C123.658 11.0592 123.845 10.3445 124.218 9.72583C124.602 9.09649 125.119 8.61116 125.77 8.26983C126.431 7.92849 127.167 7.75783 127.978 7.75783C128.597 7.75783 129.157 7.85916 129.658 8.06183C130.17 8.26449 130.597 8.57383 130.938 8.98983V7.85383H132.842ZM128.282 14.3178C129.039 14.3178 129.658 14.0938 130.138 13.6458C130.629 13.1872 130.874 12.5952 130.874 11.8698C130.874 11.1552 130.629 10.5738 130.138 10.1258C129.658 9.67783 129.039 9.45383 128.282 9.45383C127.514 9.45383 126.885 9.67783 126.394 10.1258C125.914 10.5738 125.674 11.1552 125.674 11.8698C125.674 12.5952 125.914 13.1872 126.394 13.6458C126.885 14.0938 127.514 14.3178 128.282 14.3178ZM139.535 14.8138C140.463 14.8138 141.237 14.5045 141.855 13.8858L142.911 15.1178C142.538 15.5765 142.058 15.9232 141.471 16.1578C140.885 16.3925 140.223 16.5098 139.487 16.5098C138.549 16.5098 137.722 16.3232 137.007 15.9498C136.293 15.5765 135.738 15.0592 135.343 14.3978C134.959 13.7258 134.767 12.9685 134.767 12.1258C134.767 11.2938 134.954 10.5472 135.327 9.88583C135.711 9.21383 136.234 8.69116 136.895 8.31783C137.567 7.94449 138.325 7.75783 139.167 7.75783C139.967 7.75783 140.693 7.93383 141.343 8.28583C142.005 8.62716 142.527 9.12316 142.911 9.77383C143.295 10.4138 143.487 11.1658 143.487 12.0298L136.943 13.3098C137.146 13.8005 137.471 14.1738 137.919 14.4298C138.367 14.6858 138.906 14.8138 139.535 14.8138ZM139.167 9.35783C138.431 9.35783 137.834 9.59783 137.375 10.0778C136.927 10.5578 136.703 11.2032 136.703 12.0138V12.0298L141.535 11.1018C141.397 10.5792 141.114 10.1578 140.687 9.83783C140.271 9.51783 139.765 9.35783 139.167 9.35783ZM147.313 9.10183C147.889 8.20583 148.902 7.75783 150.353 7.75783V9.66183C150.182 9.62983 150.028 9.61383 149.889 9.61383C149.11 9.61383 148.502 9.84316 148.065 10.3018C147.628 10.7498 147.409 11.4005 147.409 12.2538V16.3978H145.409V7.85383H147.313V9.10183Z" fill="#595959"/>
<circle r="4.51246" transform="matrix(1 0 0 -1 156.671 13.4383)" fill="#007BFF"/>
</svg>
