<svg width="56" height="56" viewBox="0 0 56 56" fill="none" xmlns="http://www.w3.org/2000/svg">
<g clip-path="url(#clip0_135:1046)">
<path d="M52.9776 10.0269H3.61876C2.06738 10.0269 0.798187 11.296 0.798187 12.8473V43.873C0.798187 45.4242 2.06738 46.6936 3.61876 46.6936H52.9777C54.5289 46.6936 55.7983 45.4244 55.7983 43.873V12.8473C55.7982 11.296 54.529 10.0269 52.9776 10.0269ZM51.9192 12.1421L29.9207 28.6423C29.5252 28.9433 28.918 29.1316 28.2981 29.1288C27.6783 29.1316 27.0712 28.9433 26.6756 28.6423L4.67708 12.1421H51.9192ZM40.1683 29.731L52.1555 44.5388C52.1675 44.5536 52.1823 44.5649 52.195 44.5783H4.40133C4.41401 44.5643 4.42883 44.5536 4.44086 44.5388L16.4281 29.731C16.7953 29.277 16.7257 28.6113 16.2708 28.2431C15.8167 27.8759 15.151 27.9455 14.7837 28.3996L2.91354 43.0628V13.4642L25.407 30.3344C26.2526 30.9641 27.2812 31.2413 28.298 31.2441C29.3133 31.2419 30.3429 30.9648 31.1889 30.3344L53.6824 13.4642V43.0626L41.8126 28.3996C41.4452 27.9456 40.7789 27.8757 40.3255 28.2431C39.8706 28.6104 39.8008 29.277 40.1683 29.731Z" fill="white"/>
</g>
<defs>
<clipPath id="clip0_135:1046">
<rect width="55" height="55" fill="white" transform="translate(0.798187 0.860352)"/>
</clipPath>
</defs>
</svg>
