<svg width="72" height="56" viewBox="0 0 72 56" fill="none" xmlns="http://www.w3.org/2000/svg">
<path d="M71.4094 3.19151C70.9023 3.75804 70.4193 4.34817 69.8638 4.89109C68.2217 6.47263 66.5553 8.03057 64.9132 9.63572C64.6958 9.84817 64.5268 10.2022 64.5268 10.5091C64.5026 21.8632 64.5026 33.2409 64.5268 44.5949C64.5268 44.9254 64.6717 45.3031 64.8649 45.5628C66.5312 47.7108 68.2217 49.8117 69.9121 51.9361C70.4917 52.6679 70.7574 53.4469 70.3227 54.3203C69.888 55.1937 69.091 55.5005 68.1492 55.5005C59.6968 55.5005 51.2203 55.5005 42.7679 55.5005C41.8261 55.5005 41.0291 55.1937 40.5945 54.3203C40.1598 53.4469 40.4013 52.6679 41.005 51.9361C42.6713 49.8589 44.3377 47.7816 45.9798 45.6808C46.2213 45.3503 46.4145 44.8782 46.4145 44.4769C46.4387 37.8911 46.4387 31.3289 46.4387 24.743C46.4387 24.5306 46.4387 24.2945 46.4387 24.0821C46.4145 24.0821 46.3662 24.0585 46.3421 24.0585C46.2455 24.2709 46.1247 24.4598 46.0523 24.6958C42.7679 33.0284 39.4594 41.3846 36.1751 49.7173C35.6196 51.11 35.04 52.4791 34.5087 53.8718C34.1706 54.7688 33.591 55.4061 32.5768 55.4533C31.5142 55.5005 30.8863 54.9104 30.4516 54.0134C25.6217 44.4769 20.7676 34.9168 15.9376 25.3804C15.4788 24.4598 14.9958 23.5628 14.4404 22.4533C14.3921 22.831 14.3679 22.9962 14.3679 23.1851C14.3679 28.7323 14.3679 34.3031 14.3921 39.8503C14.3921 40.228 14.5611 40.6529 14.8026 40.9361C17.7006 44.6185 20.6468 48.2773 23.5689 51.9597C24.3176 52.904 24.3659 53.8954 23.738 54.6979C23.255 55.2881 22.6271 55.4769 21.9026 55.4769C20.5744 55.4769 19.2703 55.4769 17.9421 55.4769C12.9189 55.4769 7.91996 55.4769 2.89683 55.4769C1.85839 55.4769 1.01316 55.1937 0.602611 54.2022C0.264516 53.4233 0.481863 52.7151 1.01316 52.0542C3.91112 48.419 6.80907 44.7838 9.70703 41.1486C10.0934 40.6529 10.2866 40.1808 10.2866 39.567C10.2625 31.3761 10.2866 23.1615 10.2625 14.9705C10.2625 14.64 10.1176 14.2623 9.90023 14.0027C7.12302 10.6507 4.36996 7.34602 1.59275 4.0413C1.03731 3.38036 0.771659 2.6722 1.10975 1.84602C1.39955 1.13787 1.90669 0.712974 2.70363 0.594948C2.96928 0.547738 3.25907 0.547738 3.52472 0.547738C9.63458 0.547738 15.7203 0.571343 21.8302 0.524133C23.2308 0.524133 24.0761 1.01984 24.6798 2.29452C28.3023 10.0842 31.973 17.8503 35.6196 25.6164C36.6098 27.6937 37.5999 29.7709 38.6383 31.9662C38.7591 31.7301 38.8557 31.5649 38.9281 31.3997C41.3914 25.1915 43.8305 18.9598 46.2696 12.7516C46.3904 12.4447 46.4387 12.0907 46.4387 11.7602C46.4628 8.76233 46.4387 5.74087 46.4387 2.74302C46.4387 1.39752 47.2839 0.524133 48.6604 0.524133C55.4706 0.500527 62.305 0.524133 69.1152 0.524133C70.2261 0.524133 70.9023 1.11426 71.3853 1.98765C71.4094 2.36533 71.4094 2.79023 71.4094 3.19151Z" fill="#595959"/>
</svg>
