<svg width="198" height="200" viewBox="0 0 198 200" fill="none" xmlns="http://www.w3.org/2000/svg">
<path d="M161.03 41.5267V147.402C161.03 152.488 156.906 156.615 151.824 156.615H145.73" stroke="#D1D7E4" stroke-width="2"/>
<path d="M41.1914 54.8303V147.402C41.1914 152.488 45.3155 156.615 50.397 156.615H56.4911" stroke="#D1D7E4" stroke-width="2"/>
<path d="M68.4032 105.428H134.684C142.821 105.428 149.413 112.024 149.413 120.169V184.659C149.413 192.804 142.821 199.4 134.684 199.4H68.4032C60.2654 199.4 53.6742 192.804 53.6742 184.659V120.169C53.6742 112.024 60.2654 105.428 68.4032 105.428Z" fill="#C4C4C4"/>
<path d="M68.4032 105.428H134.684C142.821 105.428 149.413 112.024 149.413 120.169V158.863C149.413 167.007 142.821 173.604 134.684 173.604H68.4032C60.2654 173.604 53.6742 167.007 53.6742 158.863V120.169C53.6742 112.024 60.2654 105.428 68.4032 105.428Z" fill="#E7EBF4"/>
<path d="M9.48728 37.252H61.0387C66.1202 37.252 70.2443 41.3794 70.2443 46.4649V88.1812C70.2443 93.2668 66.1202 97.3942 61.0387 97.3942H9.48728C4.40579 97.3942 0.281677 93.2668 0.281677 88.1812V46.4649C0.281677 41.3794 4.40579 37.252 9.48728 37.252Z" fill="white"/>
<path d="M29.5371 64.3749L35.263 58.6629L40.9889 64.3933L44.3213 61.0582L35.263 51.9927L26.2047 61.0582L29.5371 64.3749ZM20.534 66.7334L23.8665 63.3983L27.1989 66.7334L23.8665 70.0685L20.534 66.7334ZM29.5371 69.0919L35.263 74.804L40.9889 69.0735L44.3213 72.4086L35.263 81.4742L26.2047 72.4086L29.5371 69.0919ZM43.3271 66.7334L46.6595 63.3983L49.992 66.7334L46.6595 70.0685L43.3271 66.7334Z" fill="#007BFF"/>
<path d="M38.6323 66.7334L35.263 63.343L32.7591 65.8489L32.4645 66.1438L31.8938 66.7334L35.263 70.1238L38.6323 66.7334Z" fill="#007BFF"/>
<path d="M125.478 16.9835C125.478 11.8979 129.602 7.77051 134.684 7.77051H188.076C193.158 7.77051 197.282 11.8979 197.282 16.9835V59.3631C197.282 64.4487 193.158 68.5761 188.076 68.5761H134.684C129.602 68.5761 125.478 64.4487 125.478 59.3631V16.9835Z" fill="white"/>
<path opacity="0.9" d="M162.3 51.9927C167.384 51.9927 171.506 47.8679 171.506 42.7797C171.506 37.6916 167.384 33.5668 162.3 33.5668C157.216 33.5668 153.095 37.6916 153.095 42.7797C153.095 47.8679 157.216 51.9927 162.3 51.9927Z" fill="url(#paint0_linear_112:3970)"/>
<path d="M162.3 40.9372C167.384 40.9372 171.506 36.8124 171.506 31.7242C171.506 26.636 167.384 22.5112 162.3 22.5112C157.216 22.5112 153.095 26.636 153.095 31.7242C153.095 36.8124 157.216 40.9372 162.3 40.9372Z" fill="url(#paint1_linear_112:3970)"/>
<path d="M38.9452 0.400146H48.9609C54.0424 0.400146 58.1665 4.52755 58.1665 9.61311V15.4726C58.1665 20.5581 54.0424 24.6855 48.9609 24.6855H38.9452C33.8637 24.6855 29.7396 20.5581 29.7396 15.4726V9.61311C29.7396 4.52755 33.8637 0.400146 38.9452 0.400146Z" fill="#007BFF"/>
<path d="M94.1789 61.2057H109.663C114.744 61.2057 118.868 65.3331 118.868 70.4187V80.903C118.868 85.9886 114.744 90.116 109.663 90.116H94.1789C89.0974 90.116 84.9733 85.9886 84.9733 80.903V70.4187C84.9733 65.3331 89.0974 61.2057 94.1789 61.2057Z" fill="#B3D7FF"/>
<path d="M62.5668 130.119L71.2201 152.672L86.2621 134.817L99.4261 152.672L117.8 130.119L121.059 143.754L125.754 139.774L128.571 144.233L133.266 144.694L138.053 136.236" stroke="#007BFF" stroke-miterlimit="10" stroke-linecap="round" stroke-linejoin="round"/>
<defs>
<linearGradient id="paint0_linear_112:3970" x1="158.087" y1="34.7678" x2="167.304" y2="52.2663" gradientUnits="userSpaceOnUse">
<stop stop-color="#007BFF" stop-opacity="0.69"/>
<stop offset="1" stop-color="#007BFF" stop-opacity="0.1"/>
</linearGradient>
<linearGradient id="paint1_linear_112:3970" x1="168.153" y1="38.8362" x2="155.252" y2="23.1843" gradientUnits="userSpaceOnUse">
<stop stop-color="#007BFF" stop-opacity="0.78"/>
<stop offset="1" stop-color="#007BFF" stop-opacity="0"/>
</linearGradient>
</defs>
</svg>
