<svg width="30" height="43" viewBox="0 0 30 43" fill="none" xmlns="http://www.w3.org/2000/svg">
<path d="M6.59847 22.8342C5.72953 22.8342 4.86059 22.8342 3.99165 22.8342C3.66039 22.8342 3.45396 22.6204 3.51157 22.3433C3.56918 22.0809 3.75161 21.9982 4.00125 21.9982C5.14383 22.0031 6.29122 21.9982 7.4338 21.9982C8.0195 21.9982 8.60519 21.9982 9.19088 21.9982C9.51254 21.9982 9.70457 22.1538 9.70937 22.4065C9.71417 22.669 9.51734 22.8294 9.18128 22.8294C8.32194 22.8342 7.4626 22.8342 6.59847 22.8342Z" fill="#C4C4C4"/>
<path d="M25.7345 26.5718C25.4513 26.5718 25.168 26.5767 24.8848 26.5718C24.6303 26.5621 24.4575 26.392 24.4575 26.1636C24.4575 25.9303 24.6207 25.7504 24.88 25.7456C25.4561 25.7359 26.0322 25.7359 26.6083 25.7456C26.8579 25.7504 27.0307 25.9448 27.0259 26.1733C27.0211 26.4066 26.8483 26.567 26.5891 26.5718C26.301 26.5767 26.0178 26.5718 25.7345 26.5718Z" fill="#C4C4C4"/>
<path d="M25.7344 23.8743C26.0177 23.8743 26.3009 23.8646 26.5842 23.8792C26.8482 23.8889 27.0163 24.0542 27.0211 24.2826C27.0259 24.5159 26.8482 24.7006 26.5746 24.7055C26.0177 24.7152 25.4608 24.7152 24.9039 24.7055C24.6207 24.7006 24.4526 24.5305 24.4526 24.2875C24.4526 24.0444 24.6207 23.8889 24.9087 23.8792C25.1872 23.8646 25.4608 23.8743 25.7344 23.8743Z" fill="#C4C4C4"/>
<path d="M25.7489 27.6168C26.0322 27.6168 26.3154 27.612 26.5987 27.6168C26.8531 27.6217 27.026 27.7967 27.026 28.03C27.026 28.2438 26.8627 28.4382 26.6227 28.4431C26.037 28.4577 25.4513 28.4577 24.8656 28.4431C24.6112 28.4382 24.4479 28.2438 24.4527 28.0154C24.4623 27.7821 24.6304 27.6266 24.8896 27.6168C25.1825 27.612 25.4657 27.6168 25.7489 27.6168Z" fill="#C4C4C4"/>
<path d="M4.78858 23.8744C5.06223 23.8744 5.33587 23.8695 5.60952 23.8744C5.89276 23.8841 6.06559 24.0445 6.07039 24.2826C6.07519 24.5208 5.89756 24.7006 5.62392 24.7006C5.06703 24.7104 4.51014 24.7104 3.95325 24.7006C3.67 24.6958 3.50678 24.5257 3.51158 24.2778C3.51638 24.0445 3.6748 23.8841 3.94365 23.8744C4.22209 23.8647 4.50534 23.8744 4.78858 23.8744Z" fill="#C4C4C4"/>
<path d="M12.5418 34.2026C12.4266 32.8369 13.5884 31.6072 14.9854 31.5926C16.3776 31.578 17.5682 32.8223 17.4578 34.2026C15.8256 34.2026 14.1933 34.2026 12.5418 34.2026Z" fill="white"/>
<path d="M28.3893 18.1537C28.0917 18.6884 27.8612 18.7807 27.2755 18.5863C26.9443 18.4794 26.613 18.3773 26.2818 18.2607C25.8737 18.1148 25.6769 17.7455 25.7921 17.3663C25.9073 16.9775 26.2962 16.7734 26.7138 16.8998C27.1075 17.0164 27.506 17.1233 27.8756 17.2983C28.0773 17.3955 28.2213 17.6142 28.3893 17.7795C28.3893 17.9059 28.3893 18.0322 28.3893 18.1537Z" fill="#007BFF"/>
<path d="M3.75655 10.9036C3.19966 10.3593 2.99322 9.71772 3.23326 8.97408L3.75655 10.9036ZM3.75655 10.9036C4.59657 11.7238 5.43286 12.5497 6.26775 13.3741C6.77364 13.8737 7.27902 14.3727 7.78439 14.8697L3.75655 10.9036ZM15.0039 0.2322L15.0039 0.232414C15.3887 0.247592 15.7261 0.346595 16.0106 0.532329C16.295 0.718054 16.5211 0.986974 16.6886 1.33366C17.5286 3.04919 18.3688 4.76501 19.1994 6.48573C19.2551 6.60072 19.3135 6.67711 19.3839 6.73015C19.4539 6.78295 19.5435 6.81848 19.6714 6.83867C21.2148 7.05503 22.7582 7.28459 24.2985 7.51369C24.627 7.56255 24.9553 7.61139 25.2835 7.66007C25.6627 7.71566 25.9912 7.84792 26.256 8.06289C26.5211 8.27811 26.7172 8.57215 26.8377 8.943C26.8377 8.94307 26.8377 8.94313 26.8378 8.94319L26.7426 8.97408C26.9731 9.67883 26.8099 10.3204 26.277 10.8453L15.0039 0.2322ZM15.0039 0.2322L14.9974 0.23237C14.6073 0.242496 14.2659 0.34026 13.9771 0.527253C13.6883 0.714168 13.4576 0.98663 13.283 1.33764L13.2825 1.3386C12.806 2.32274 12.3266 3.30653 11.8476 4.28957C11.4867 5.03019 11.126 5.77037 10.7669 6.50994L10.7669 6.50992L10.7657 6.51251C10.7197 6.61467 10.6683 6.68475 10.6066 6.73322C10.5455 6.78129 10.4673 6.81366 10.3582 6.82881L10.3578 6.82888C9.58039 6.94045 8.80393 7.0561 8.02779 7.17171C6.94193 7.33345 5.85667 7.4951 4.77021 7.64535L4.76951 7.64545C4.37304 7.70315 4.02805 7.83083 3.74962 8.04484C3.47037 8.25946 3.26377 8.55658 3.13816 8.94318H3.13816L3.1381 8.94336C3.01267 9.33195 3.00269 9.69852 3.09986 10.0409C3.19683 10.3826 3.39862 10.6936 3.68664 10.9752L3.68669 10.9752C4.52656 11.7952 5.36244 12.6207 6.19715 13.4449C6.70308 13.9445 7.20858 14.4437 7.71427 14.941L7.71517 14.9419C7.79969 15.0229 7.85204 15.0966 7.87988 15.1744C7.90743 15.2513 7.91409 15.341 7.89246 15.4593L7.89236 15.4598C7.72428 16.4079 7.56099 17.356 7.4025 18.309L7.50115 18.3254L15.0039 0.2322Z" fill="#007BFF" stroke="#007BFF" stroke-width="0.2"/>
<path d="M3.36293 16.8608C3.83821 16.8657 4.13105 17.099 4.19826 17.4149C4.27028 17.7406 4.12625 18.0857 3.819 18.2072C3.35813 18.387 2.88285 18.5425 2.40758 18.6738C2.09553 18.7612 1.76907 18.5523 1.64905 18.246C1.52423 17.935 1.59625 17.5413 1.89389 17.4101C2.40758 17.1719 2.95967 17.0067 3.36293 16.8608Z" fill="#007BFF"/>
<path d="M7.25628 2.13879C7.3571 2.20684 7.57313 2.29919 7.71235 2.45958C7.986 2.78036 8.22124 3.13517 8.45647 3.48026C8.69651 3.83506 8.6245 4.25306 8.29805 4.48635C7.986 4.71479 7.57313 4.65647 7.32349 4.32596C7.05945 3.97601 6.80501 3.61635 6.56017 3.25182C6.39694 3.01366 6.39694 2.7512 6.53617 2.49846C6.66579 2.27002 6.87702 2.1631 7.25628 2.13879Z" fill="#007BFF"/>
<path d="M23.5645 2.88239C23.5069 3.0282 23.4685 3.18373 23.3821 3.3101C23.1565 3.64546 22.9212 3.97111 22.6764 4.29675C22.4075 4.65642 21.9947 4.73419 21.6682 4.49117C21.337 4.24329 21.2794 3.83016 21.5338 3.46077C21.7786 3.10596 22.0283 2.75602 22.2923 2.41579C22.4891 2.16305 22.7868 2.095 23.07 2.20193C23.3581 2.304 23.5309 2.5616 23.5645 2.88239Z" fill="#007BFF"/>
<path d="M27.6836 19.2764C25.9457 19.2813 24.2078 19.2813 22.4699 19.2813C22.2059 19.2861 21.9419 19.2861 21.6826 19.2813C17.2179 19.2861 12.758 19.2861 8.29326 19.2861H7.50113C7.39551 19.2861 7.28029 19.2959 7.17948 19.325C6.97785 19.3785 6.89143 19.5389 6.91064 19.7479C6.92984 19.9617 7.04986 20.0881 7.26109 20.1124C7.2947 20.1173 7.3283 20.1173 7.36191 20.1173C7.43392 20.1221 7.51073 20.1173 7.58754 20.1173H8.15404C12.71 20.1221 17.2659 20.1173 21.8266 20.1173H22.6092C24.3374 20.1173 26.0657 20.1173 27.794 20.1221C28.2021 20.1221 28.2501 20.1659 28.2501 20.5839V34.2026H23.2573V33.2354C23.2525 32.8417 23.118 32.7008 22.7292 32.6959H21.7306C21.553 31.8599 21.2457 31.1017 20.8185 30.3921C20.7897 30.3435 20.8185 30.2171 20.8617 30.1685C21.0537 29.9547 21.2649 29.7603 21.4618 29.5513C21.721 29.2791 21.721 29.0895 21.4522 28.8125C21.0489 28.3945 20.6408 27.9814 20.228 27.5731C19.9591 27.3009 19.7527 27.3058 19.4791 27.5828C19.2486 27.821 19.023 28.0688 18.8646 28.239C18.0004 27.8793 17.2131 27.5439 16.3826 27.1988C16.3826 26.9121 16.3874 26.5621 16.3826 26.2073C16.3778 25.9011 16.2289 25.7456 15.9265 25.7407C15.8257 25.7407 15.7297 25.7359 15.6288 25.7407C15.2016 25.7359 14.7695 25.7359 14.3422 25.7407H14.083C13.7661 25.7456 13.6221 25.8963 13.6173 26.2268C13.6125 26.5232 13.6221 26.8197 13.6077 27.1162C13.6077 27.1891 13.5405 27.3009 13.4829 27.3106C12.6764 27.505 11.9274 27.8355 11.1977 28.3021C10.9625 28.0543 10.7417 27.8112 10.5064 27.5731C10.2472 27.3058 10.0359 27.3058 9.7767 27.5634C9.35903 27.9814 8.94616 28.3993 8.5333 28.8222C8.27886 29.0895 8.27406 29.2839 8.5285 29.5415C8.76853 29.7846 9.01817 30.013 9.2054 30.188C8.85015 31.0628 8.52369 31.8599 8.17804 32.6959C7.9044 32.6959 7.56834 32.6911 7.22749 32.6959C6.89143 32.7056 6.74741 32.8514 6.74261 33.1965C6.73781 33.527 6.74261 33.8575 6.74261 34.1978H1.75941C1.75461 34.1394 1.74981 34.1006 1.74981 34.0665C1.74981 29.5367 1.74981 25.0117 1.745 20.4818C1.745 20.2193 1.86022 20.1173 2.10986 20.1173C3.01721 20.1221 3.92456 20.1221 4.8319 20.1173C5.10555 20.1173 5.37919 20.127 5.65283 20.1173C5.89767 20.1076 6.0609 19.9472 6.0705 19.7236C6.0801 19.5049 5.92168 19.325 5.68644 19.291C5.60483 19.2813 5.51841 19.2861 5.4368 19.2861H2.19148C1.32254 19.2861 0.924072 19.6944 0.924072 20.5839V37.7264C0.924072 38.611 1.32254 39.0193 2.19628 39.0193C5.13435 39.0241 8.07722 39.0241 11.0201 39.0241H11.3562V40.8079C11.0873 40.8079 10.8281 40.803 10.5736 40.8079C10.3336 40.8176 10.1992 40.9634 10.18 41.1918C10.1656 41.4251 10.3 41.5758 10.5256 41.6244C10.6024 41.6439 10.6888 41.639 10.7705 41.639C13.5933 41.6439 16.4162 41.6439 19.239 41.6439C19.2822 41.6439 19.3302 41.6439 19.3734 41.639C19.6471 41.6196 19.8295 41.4446 19.8199 41.2064C19.8151 40.9683 19.6375 40.8127 19.3542 40.8079C19.119 40.803 18.8838 40.8079 18.6437 40.8079V39.0241C19.6519 39.0241 20.6408 39.0241 21.6298 39.0193C21.7402 39.0193 21.8506 39.0193 21.9563 38.9901C22.1579 38.9318 22.2587 38.7762 22.2395 38.5672C22.2251 38.368 22.1051 38.2222 21.8938 38.1979C21.7882 38.1833 21.6778 38.1881 21.5674 38.1881H3.53089C3.05562 38.1881 2.58034 38.1833 2.10506 38.1881C1.85062 38.193 1.745 38.0812 1.745 37.8188C1.75461 36.9633 1.74981 36.1128 1.74981 35.2573C1.74981 35.1941 1.76421 35.1358 1.77381 35.0775H28.2357C28.2405 35.1747 28.2501 35.2573 28.2501 35.3351V37.7556C28.2501 38.1298 28.1973 38.1881 27.818 38.1881H23.7181C23.6269 38.1881 23.5357 38.1833 23.4445 38.193C23.2237 38.2173 23.094 38.3485 23.0796 38.5721C23.0652 38.8005 23.1805 38.9464 23.3965 38.9998C23.4925 39.0241 23.5933 39.0193 23.6941 39.0193C25.0239 39.0241 26.3538 38.9998 27.6836 39.029C28.3413 39.0436 28.8166 38.8346 29.0758 38.2027V20.1076C28.8214 19.4708 28.3413 19.2764 27.6836 19.2764ZM12.2203 39.0387H17.7844V40.7884H12.2203V39.0387ZM17.4579 34.2026H12.5419C12.4267 32.8369 13.5885 31.6072 14.9855 31.5926C16.3778 31.5829 17.5683 32.8223 17.4579 34.2026ZM22.4171 34.2075H18.3269C18.2741 31.8697 16.4258 30.7226 14.9519 30.7566C13.2765 30.7955 11.697 32.137 11.6778 34.2026H7.58274V33.5319H8.48529C8.85015 33.527 8.97497 33.4444 9.03258 33.0896C9.1958 32.1613 9.54146 31.3156 10.0791 30.5428C10.276 30.2609 10.252 30.1151 10.0071 29.8575C9.7959 29.6387 9.57986 29.4297 9.29182 29.143C9.45024 29.0166 9.60387 28.9097 9.73349 28.7833C9.86791 28.6569 9.97833 28.5111 10.1368 28.3264C10.3912 28.6035 10.6024 28.8465 10.8281 29.0749C11.0441 29.2937 11.2169 29.3131 11.4618 29.1333C12.2395 28.584 13.0892 28.2195 14.0302 28.064C14.2558 28.0251 14.3758 27.923 14.419 27.7335C14.4334 27.6849 14.4382 27.6265 14.4382 27.5634C14.443 27.2474 14.4382 26.9315 14.4382 26.5962H15.5568V27.4953C15.5568 27.5731 15.5616 27.6363 15.5712 27.6946C15.6096 27.9279 15.7345 28.0202 16.0369 28.0737C16.9154 28.2341 17.722 28.5646 18.4565 29.0847C18.8021 29.3277 18.9318 29.318 19.239 29.0069C19.4407 28.8028 19.6327 28.5938 19.8391 28.375C20.1224 28.6618 20.372 28.9097 20.6504 29.1916L20.0167 29.8332C19.7335 30.1199 19.7191 30.2511 19.9447 30.5817C20.4584 31.3302 20.7993 32.1516 20.9529 33.0507C21.0201 33.4396 21.1353 33.527 21.529 33.5319C21.8026 33.5319 22.0763 33.5368 22.3499 33.5368C22.3691 33.5368 22.3835 33.5513 22.4171 33.5659V34.2075Z" fill="#C4C4C4"/>
</svg>
