<svg width="50" height="50" viewBox="0 0 50 50" fill="none" xmlns="http://www.w3.org/2000/svg">
<g clip-path="url(#clip0_83:520)">
<path d="M49.23 15.1651C49.08 15.9651 48.97 16.7751 48.77 17.5551C48.07 20.3051 46.63 22.6051 44.51 24.4751C44.17 24.7751 44.02 25.0751 44.03 25.5351C44.06 27.1051 44.04 28.6751 44.05 30.2451C44.05 30.7351 43.94 31.1451 43.45 31.3451C42.97 31.5451 42.59 31.3351 42.24 30.9951C41.18 29.9251 40.12 28.8651 39.04 27.8151C38.92 27.6951 38.67 27.6151 38.52 27.6451C36.47 28.1151 34.39 28.0551 32.3 27.9851C29.78 27.9051 27.44 27.1951 25.33 25.8151C21.84 23.5351 19.66 20.3351 19.05 16.1951C18.3 11.1351 19.91 6.87507 23.72 3.48507C26.24 1.24507 29.26 0.155069 32.63 0.0850693C34.41 0.0550693 36.2 -0.0249307 37.95 0.345069C42.34 1.27507 45.58 3.74507 47.68 7.69507C48.52 9.28507 48.99 10.9851 49.16 12.7751C49.17 12.8651 49.21 12.9551 49.23 13.0551C49.23 13.7551 49.23 14.4651 49.23 15.1651ZM42.12 28.1751C42.12 27.1851 42.19 26.3151 42.1 25.4751C42 24.4151 42.39 23.7351 43.2 23.0551C45.53 21.1051 46.84 18.5451 47.21 15.5351C47.61 12.1951 46.76 9.17507 44.67 6.54507C42.76 4.14507 40.27 2.67507 37.23 2.18507C35.29 1.87507 33.32 1.87507 31.39 2.12507C30.2 2.27507 28.98 2.59507 27.9 3.09507C23.99 4.90507 21.6 7.97507 20.96 12.2451C20.28 16.7951 21.84 20.5651 25.38 23.4851C27.37 25.1151 29.69 25.9651 32.27 26.0651C34.33 26.1451 36.41 26.2551 38.42 25.6651C39.1 25.4651 39.61 25.5951 40.09 26.1251C40.71 26.7951 41.38 27.4251 42.12 28.1751Z" fill="#007BFF"/>
<path d="M16.8299 49.3051C15.7499 48.2651 14.5999 47.2751 13.6099 46.1551C12.8499 45.2951 12.0399 44.9651 10.9099 45.0451C9.56994 45.1451 8.21994 45.0751 6.86994 45.0651C2.94994 45.0551 0.00994141 42.1251 0.00994141 38.1851C-5.85937e-05 33.3551 -5.85937e-05 28.5151 0.00994141 23.6751C0.0199414 19.7451 2.95994 16.8151 6.88994 16.8051C9.97994 16.7951 13.0699 16.8051 16.1699 16.8051C16.3799 16.8051 16.5899 16.8151 16.7799 16.8851C17.1899 17.0251 17.3999 17.3451 17.3999 17.7651C17.3999 18.1851 17.1799 18.5051 16.7699 18.6451C16.5599 18.7151 16.3299 18.7251 16.1099 18.7251C13.0699 18.7251 10.0199 18.7251 6.97994 18.7251C4.01994 18.7251 1.93994 20.8151 1.93994 23.7751C1.93994 28.5451 1.93994 33.3251 1.93994 38.0951C1.93994 41.0551 4.02994 43.1351 6.98994 43.1351C8.87994 43.1351 10.7699 43.1451 12.6599 43.1251C13.1799 43.1251 13.5399 43.2851 13.8999 43.6951C14.5799 44.4751 15.3599 45.1651 16.1699 45.9751C16.1699 45.3951 16.1699 44.9051 16.1699 44.4151C16.1699 43.4651 16.4999 43.1351 17.4399 43.1351C20.7099 43.1351 23.9799 43.1351 27.2499 43.1351C30.2499 43.1351 32.3199 41.0651 32.3299 38.0651C32.3299 36.0451 32.3299 34.0251 32.3299 32.0051C32.3299 31.7851 32.3399 31.5451 32.4199 31.3451C32.5599 30.9451 32.8899 30.7351 33.3099 30.7451C33.7299 30.7551 34.0399 30.9751 34.1799 31.3851C34.2399 31.5651 34.2499 31.7651 34.2499 31.9551C34.2499 34.0651 34.2699 36.1851 34.2499 38.2951C34.2199 41.5351 32.0999 44.1751 28.9299 44.8851C28.3899 45.0051 27.8199 45.0451 27.2599 45.0451C24.2599 45.0651 21.2699 45.0551 18.2699 45.0551C18.2399 45.0551 18.2099 45.0651 18.0999 45.0851C18.0999 45.4951 18.0999 45.9151 18.0999 46.3451C18.0999 46.8851 18.0699 47.4351 18.1099 47.9751C18.1499 48.5651 17.9499 49.0051 17.4299 49.2851C17.2199 49.3051 17.0199 49.3051 16.8299 49.3051Z" fill="#C4C4C4"/>
<path d="M16.35 29.8751C19.59 29.8751 22.82 29.8751 26.06 29.8751C26.22 29.8751 26.38 29.8651 26.54 29.8951C27.04 29.9651 27.4 30.3751 27.4 30.8351C27.4 31.3051 27.04 31.7051 26.54 31.7751C26.38 31.7951 26.22 31.7951 26.06 31.7951C19.55 31.7951 13.05 31.7951 6.53995 31.7951C6.50995 31.7951 6.47995 31.7951 6.43995 31.7951C5.65995 31.7951 5.19995 31.4351 5.19995 30.8351C5.19995 30.2351 5.65995 29.8751 6.43995 29.8751C9.74995 29.8751 13.05 29.8751 16.35 29.8751Z" fill="#C4C4C4"/>
<path d="M14.4099 35.2651C17.0799 35.2651 19.7599 35.2651 22.4299 35.2651C23.2099 35.2651 23.6699 35.6951 23.5999 36.3251C23.5399 36.7951 23.2599 37.0651 22.7999 37.1551C22.6299 37.1851 22.4499 37.1751 22.2699 37.1751C17.0299 37.1751 11.7999 37.1751 6.55987 37.1751C5.67987 37.1751 5.21987 36.8451 5.20987 36.2251C5.19987 35.5951 5.67987 35.2451 6.57987 35.2451C9.18987 35.2651 11.7999 35.2651 14.4099 35.2651Z" fill="#C4C4C4"/>
<path d="M13.13 26.4151C10.93 26.4151 8.73995 26.4151 6.53995 26.4151C6.37995 26.4151 6.21995 26.4251 6.05995 26.3951C5.55995 26.3251 5.19995 25.9151 5.19995 25.4551C5.19995 24.9851 5.55995 24.5851 6.05995 24.5151C6.21995 24.4951 6.37995 24.4951 6.53995 24.4951C10.96 24.4951 15.38 24.4951 19.81 24.4951C19.84 24.4951 19.87 24.4951 19.91 24.4951C20.69 24.4951 21.15 24.8551 21.15 25.4551C21.15 26.0551 20.69 26.4151 19.91 26.4151C17.65 26.4151 15.39 26.4151 13.13 26.4151Z" fill="#C4C4C4"/>
<path d="M26.4199 37.1751C25.9199 37.1651 25.4699 36.6951 25.4899 36.1951C25.4999 35.6951 25.9699 35.2451 26.4699 35.2651C26.9699 35.2751 27.4199 35.7451 27.3999 36.2451C27.3799 36.7551 26.9199 37.1951 26.4199 37.1751Z" fill="#007BFF"/>
<path d="M33.3598 15.7951C33.3598 15.5251 33.3598 15.2551 33.3598 14.9751C33.3698 13.8551 33.7798 13.2851 34.8398 12.9651C35.6198 12.7251 36.1498 12.2451 36.3798 11.4551C36.7198 10.2451 35.9698 9.03508 34.7098 8.77508C33.5298 8.53508 32.3798 9.36508 32.2098 10.5751C32.1898 10.7151 32.1698 10.8651 32.1398 11.0051C32.0298 11.5551 31.6598 11.8551 31.1298 11.8151C30.6298 11.7751 30.2798 11.3751 30.2698 10.8451C30.2298 8.56508 32.3998 6.57508 34.6598 6.82508C36.4098 7.01508 37.8198 8.20508 38.2598 9.83508C38.6898 11.4351 38.1098 13.1051 36.7398 14.1351C36.4398 14.3651 36.0898 14.5551 35.7298 14.6651C35.3698 14.7751 35.2698 14.9551 35.2898 15.3151C35.3198 15.8451 35.3098 16.3751 35.2998 16.9051C35.2798 17.5951 34.8698 18.0451 34.2998 18.0251C33.7398 18.0051 33.3898 17.5751 33.3798 16.8951C33.3498 16.5251 33.3598 16.1651 33.3598 15.7951Z" fill="#007BFF"/>
<path d="M34.3099 21.8151C33.7799 21.8151 33.3599 21.3951 33.3599 20.8751C33.3599 20.3551 33.7899 19.9251 34.3099 19.9251C34.8199 19.9251 35.2699 20.3751 35.2699 20.8751C35.2699 21.3851 34.8199 21.8151 34.3099 21.8151Z" fill="#007BFF"/>
</g>
<defs>
<clipPath id="clip0_83:520">
<rect width="49.23" height="49.25" fill="white" transform="translate(0 0.0550842)"/>
</clipPath>
</defs>
</svg>
