<svg width="40" height="32" viewBox="0 0 40 32" fill="none" xmlns="http://www.w3.org/2000/svg">
<g clip-path="url(#clip0_81:396)">
<path d="M8.60274 5.00488C7.39896 5.00488 6.19517 5.00488 4.99138 5.00488C4.53248 5.00488 4.2465 4.70849 4.32631 4.32452C4.40612 3.96077 4.65885 3.84625 5.00469 3.84625C6.58757 3.85299 8.17709 3.84625 9.75997 3.84625C10.5714 3.84625 11.3828 3.84625 12.1941 3.84625C12.6397 3.84625 12.9058 4.06181 12.9124 4.41209C12.9191 4.77585 12.6464 4.99814 12.1808 4.99814C10.9837 5.00488 9.79323 5.00488 8.60274 5.00488Z" fill="#C4C4C4"/>
<path d="M35.1126 10.185C34.7202 10.185 34.3278 10.1918 33.9354 10.185C33.5829 10.1716 33.3435 9.9358 33.3435 9.6192C33.3435 9.29586 33.5696 9.04663 33.9288 9.03989C34.7269 9.02642 35.525 9.02642 36.323 9.03989C36.6689 9.04663 36.9083 9.31607 36.9017 9.63267C36.895 9.95601 36.6556 10.1783 36.2964 10.185C35.8974 10.1918 35.505 10.185 35.1126 10.185Z" fill="#C4C4C4"/>
<path d="M35.1127 6.44642C35.5051 6.44642 35.8975 6.43294 36.2898 6.45315C36.6556 6.46662 36.8884 6.69566 36.8951 7.01226C36.9017 7.3356 36.6556 7.59157 36.2765 7.59831C35.5051 7.61178 34.7336 7.61178 33.9621 7.59831C33.5697 7.59157 33.3369 7.3558 33.3369 7.01899C33.3369 6.68218 33.5697 6.46662 33.9687 6.45315C34.3545 6.43294 34.7336 6.44642 35.1127 6.44642Z" fill="#C4C4C4"/>
<path d="M35.1259 11.6333C35.5183 11.6333 35.9107 11.6266 36.3031 11.6333C36.6556 11.64 36.895 11.8825 36.895 12.2059C36.895 12.5023 36.6689 12.7717 36.3364 12.7785C35.525 12.7987 34.7136 12.7987 33.9022 12.7785C33.5497 12.7717 33.3236 12.5023 33.3302 12.1857C33.3435 11.8623 33.5763 11.6468 33.9354 11.6333C34.3411 11.6266 34.7335 11.6333 35.1259 11.6333Z" fill="#C4C4C4"/>
<path d="M6.08882 6.44642C6.46792 6.44642 6.84701 6.43968 7.2261 6.44642C7.6185 6.45989 7.85792 6.68218 7.86457 7.01226C7.87122 7.34233 7.62515 7.59157 7.24605 7.59157C6.47457 7.60504 5.70308 7.60504 4.93159 7.59157C4.5392 7.58484 4.31307 7.34907 4.31972 7.00552C4.32637 6.68218 4.54585 6.45989 4.91829 6.44642C5.30403 6.43295 5.69643 6.44642 6.08882 6.44642Z" fill="#C4C4C4"/>
<path d="M37.8061 0.0739746C35.3986 0.0807108 32.991 0.0807108 30.5834 0.0807108C30.2176 0.087447 29.8519 0.087447 29.4927 0.0807108C23.3075 0.087447 17.129 0.087447 10.9438 0.087447H9.84639C9.70008 0.087447 9.54046 0.100919 9.40079 0.141337C9.12146 0.215435 9.00175 0.43773 9.02835 0.727386C9.05495 1.02378 9.22122 1.19892 9.51385 1.2326C9.56041 1.23934 9.60696 1.23934 9.65352 1.23934C9.75328 1.24607 9.85969 1.23934 9.96611 1.23934H10.7509C17.0625 1.24607 23.374 1.23934 29.6922 1.23934H30.7763C33.1706 1.23934 35.5648 1.23934 37.9591 1.24607C38.5244 1.24607 38.5909 1.3067 38.5909 1.88601V20.7608H31.6742L30.5103 20.7676H24.8438L23.64 20.7608H9.95945L8.79557 20.7541H1.89209C1.88544 20.6733 1.87879 20.6194 1.87879 20.5722C1.87879 14.2941 1.87879 8.02269 1.87214 1.74455C1.87214 1.3808 2.03176 1.23934 2.3776 1.23934C3.63459 1.24607 4.89158 1.24607 6.14857 1.23934C6.52767 1.23934 6.90676 1.25281 7.28585 1.23934C7.62504 1.22587 7.85117 1.00357 7.86447 0.693705C7.87777 0.390576 7.65829 0.141337 7.33241 0.0941832C7.21935 0.0807108 7.09963 0.087447 6.98657 0.087447H2.49066C1.28688 0.087447 0.734863 0.653288 0.734863 1.88601V25.6446C0.734863 26.8706 1.28688 27.4364 2.49731 27.4364C6.56757 27.4432 10.6445 27.4432 14.7214 27.4432H15.1869V29.9153C14.8145 29.9153 14.4554 29.9086 14.1029 29.9153C13.7703 29.9288 13.5841 30.1309 13.5575 30.4475C13.5376 30.7708 13.7238 30.9797 14.0364 31.047C14.1428 31.074 14.2625 31.0672 14.3756 31.0672C18.2862 31.074 22.1968 31.074 26.1075 31.074C26.1673 31.074 26.2338 31.074 26.2937 31.0672C26.6728 31.0403 26.9255 30.7978 26.9122 30.4677C26.9056 30.1376 26.6595 29.9221 26.2671 29.9153C25.9412 29.9086 25.6153 29.9153 25.2828 29.9153V27.4432C26.6794 27.4432 28.0495 27.4432 29.4196 27.4364C29.5725 27.4364 29.7255 27.4364 29.8718 27.396C30.1511 27.3152 30.2908 27.0996 30.2642 26.81C30.2442 26.5338 30.078 26.3317 29.7853 26.298C29.639 26.2778 29.4861 26.2845 29.3331 26.2845H4.34622C3.6878 26.2845 3.02937 26.2778 2.37095 26.2845C2.01846 26.2913 1.87214 26.1363 1.87214 25.7726C1.88544 24.587 1.87879 23.4082 1.87879 22.2226C1.87879 22.135 1.89874 22.0542 1.91205 21.9734H38.571C38.5776 22.1081 38.5909 22.2226 38.5909 22.3304V25.685C38.5909 26.2037 38.5178 26.2845 37.9924 26.2845H32.3126C32.1863 26.2845 32.0599 26.2778 31.9335 26.2913C31.6276 26.325 31.448 26.5068 31.4281 26.8167C31.4081 27.1333 31.5677 27.3354 31.867 27.4095C32 27.4432 32.1397 27.4364 32.2794 27.4364C34.1216 27.4432 35.9639 27.4095 37.8061 27.4499C38.7173 27.4701 39.3757 27.1804 39.7349 26.3047V1.22587C39.3824 0.343423 38.7173 0.0739746 37.8061 0.0739746ZM16.3841 27.4634H24.0923V29.8884H16.3841V27.4634Z" fill="#C4C4C4"/>
<path d="M31.674 19.4204V20.7609L30.5101 20.7676V19.8784C30.4636 19.8582 30.4436 19.838 30.417 19.838C30.0379 19.838 29.6588 19.8313 29.2797 19.8313C28.7344 19.8245 28.5748 19.7033 28.4817 19.1644C28.2688 17.9182 27.7966 16.7798 27.085 15.7424C26.7724 15.2843 26.7924 15.1024 27.1848 14.705L28.0627 13.8158C27.6769 13.4251 27.3311 13.0816 26.9387 12.6841C26.6527 12.9873 26.3867 13.2769 26.1073 13.5599C25.6817 13.991 25.5021 14.0044 25.0233 13.6676C24.0057 12.9469 22.8884 12.4888 21.6713 12.2665C21.2523 12.1924 21.0794 12.0644 21.0262 11.7411C21.0129 11.6602 21.0062 11.5727 21.0062 11.4649V10.2187H19.4566C19.4566 10.6835 19.4632 11.1214 19.4566 11.5592C19.4566 11.6468 19.4499 11.7276 19.43 11.795C19.3701 12.0577 19.2039 12.1991 18.8913 12.253C17.5877 12.4686 16.4105 12.9738 15.3331 13.735C14.9939 13.9842 14.7545 13.9573 14.4552 13.6542C14.1426 13.3376 13.85 13.0008 13.4975 12.6168C13.278 12.8728 13.1251 13.0748 12.9389 13.25C12.7593 13.4251 12.5465 13.5733 12.327 13.7485C12.726 14.1459 13.0253 14.4356 13.3179 14.7387C13.6571 15.0957 13.6904 15.2978 13.4177 15.6885C12.6728 16.7596 12.194 17.9317 11.9678 19.2183C11.888 19.71 11.7151 19.8245 11.2097 19.8313H9.95932V20.7609L8.79544 20.7541C8.79544 20.2826 8.78879 19.8245 8.79544 19.3665C8.80209 18.8882 9.00161 18.6861 9.46716 18.6726C9.93937 18.6659 10.4049 18.6726 10.784 18.6726C11.2629 17.514 11.7151 16.4093 12.2073 15.1968C11.9479 14.9542 11.6021 14.6376 11.2695 14.3008C10.917 13.9438 10.9237 13.6744 11.2762 13.3039C11.8481 12.7178 12.4201 12.1385 12.9987 11.5592C13.3579 11.2022 13.6505 11.2022 14.0096 11.5727C14.3355 11.9027 14.6414 12.2396 14.9673 12.5831C15.9782 11.9364 17.0158 11.4784 18.1331 11.2089C18.2129 11.1954 18.306 11.0405 18.306 10.9395C18.326 10.5286 18.3127 10.1177 18.3193 9.70675C18.326 9.24869 18.5255 9.03986 18.9644 9.03313H19.3236C19.9155 9.02639 20.5141 9.02639 21.106 9.03313C21.2456 9.02639 21.3787 9.03313 21.5183 9.03313C21.9373 9.03986 22.1435 9.25542 22.1501 9.6798C22.1568 10.1715 22.1501 10.6566 22.1501 11.054C23.3007 11.5323 24.3914 11.9971 25.5886 12.4955C25.8081 12.2598 26.1206 11.9162 26.4399 11.5861C26.819 11.2022 27.105 11.1954 27.4774 11.5727C28.0494 12.1385 28.6147 12.7111 29.1733 13.2904C29.5458 13.6744 29.5458 13.9371 29.1866 14.3143C28.914 14.604 28.6213 14.8734 28.3553 15.1698C28.2954 15.2372 28.2555 15.4123 28.2954 15.4797C28.8874 16.4632 29.313 17.514 29.5591 18.6726H30.9424C31.4811 18.6794 31.6674 18.8747 31.674 19.4204Z" fill="#007BFF"/>
<path d="M23.6401 20.7609C23.793 18.8478 22.1437 17.1301 20.2149 17.1435C18.2796 17.1637 16.6701 18.868 16.8297 20.7609H15.6326C15.6592 17.898 17.8473 16.0388 20.1684 15.9849C22.2102 15.9378 24.7707 17.5275 24.8439 20.7676L23.6401 20.7609Z" fill="#007BFF"/>
</g>
<defs>
<clipPath id="clip0_81:396">
<rect width="39" height="31" fill="white" transform="translate(0.734863 0.0739746)"/>
</clipPath>
</defs>
</svg>
