<svg width="67" height="53" viewBox="0 0 67 53" fill="none" xmlns="http://www.w3.org/2000/svg">
<path d="M66.8144 6.65088C64.36 7.69463 61.7445 8.38713 59.0181 8.72338C61.8231 7.09963 63.9643 4.54713 64.971 1.47088C62.3555 2.98338 59.468 4.05088 56.391 4.64713C53.907 2.08213 50.3685 0.494629 46.5065 0.494629C39.0158 0.494629 32.9842 6.39088 32.9842 13.6184C32.9842 14.6584 33.0745 15.6584 33.2975 16.6109C22.0504 16.0784 12.0963 10.8509 5.40989 2.88713C4.242 4.85088 3.55751 7.09963 3.55751 9.51963C3.55751 14.0634 5.97063 18.0921 9.56712 20.4234C7.39376 20.3834 5.26036 19.7709 3.45438 18.8071C3.45438 18.8471 3.45438 18.8996 3.45438 18.9509C3.45438 25.3271 8.14399 30.6234 14.2954 31.8434C13.1945 32.1359 11.9931 32.2759 10.7479 32.2759C9.88165 32.2759 9.00767 32.2284 8.18653 32.0521C9.93966 37.2484 14.9142 41.0684 20.8297 41.1921C16.2264 44.6846 10.3805 46.7884 4.0538 46.7884C2.94392 46.7884 1.88044 46.7409 0.815674 46.6084C6.80853 50.3546 13.9113 52.4946 21.5709 52.4946C46.4691 52.4946 60.0816 32.4946 60.0816 15.1584C60.0816 14.5784 60.061 14.0184 60.0326 13.4621C62.7177 11.6146 64.9749 9.30713 66.8144 6.65088Z" fill="#595959"/>
</svg>
