<svg width="38" height="38" viewBox="0 0 38 38" fill="none" xmlns="http://www.w3.org/2000/svg">
<path fill-rule="evenodd" clip-rule="evenodd" d="M31.9071 5.5405C28.3988 2.02808 23.7331 0.0928802 18.7624 0.0908203C8.51999 0.0908203 0.184113 8.42647 0.179993 18.6717C0.178619 21.9467 1.03418 25.1438 2.66038 27.9618L0.0241241 37.5908L9.87497 35.0067C12.5893 36.4874 15.6451 37.2676 18.7549 37.2686H18.7627C29.004 37.2686 37.3408 28.9322 37.3447 18.6866C37.3467 13.7212 35.4157 9.05269 31.9071 5.5405ZM18.7624 34.1304H18.756C15.9847 34.1292 13.2668 33.3844 10.8951 31.9775L10.3314 31.6426L4.48572 33.1761L6.046 27.4768L5.67865 26.8924C4.13255 24.4333 3.31613 21.5911 3.3175 18.6728C3.32071 10.1573 10.2494 3.22925 18.7686 3.22925C22.894 3.23062 26.7719 4.8392 29.6879 7.75859C32.6038 10.678 34.2088 14.5584 34.2074 18.6854C34.2037 27.2016 27.2755 34.1304 18.7624 34.1304ZM27.2343 22.5629C26.7701 22.3304 24.4872 21.2075 24.0615 21.0523C23.6363 20.8973 23.3264 20.8202 23.0171 21.2848C22.7075 21.7494 21.8178 22.7954 21.5468 23.1051C21.2758 23.415 21.0053 23.4539 20.5409 23.2214C20.0765 22.9891 18.5805 22.4986 16.8069 20.9168C15.4267 19.6856 14.4949 18.1652 14.224 17.7005C13.9534 17.2354 14.2217 17.0084 14.4277 16.753C14.9303 16.1288 15.4336 15.4744 15.5883 15.1647C15.7433 14.8548 15.6657 14.5836 15.5494 14.3513C15.4336 14.119 14.505 11.8336 14.1182 10.9037C13.741 9.99866 13.3585 10.1209 13.0734 10.1067C12.8028 10.0932 12.4931 10.0904 12.1835 10.0904C11.874 10.0904 11.3709 10.2065 10.9452 10.6716C10.5197 11.1364 9.32039 12.2596 9.32039 14.5449C9.32039 16.8303 10.9841 19.0381 11.2162 19.348C11.4483 19.6579 14.4904 24.3477 19.1479 26.3587C20.2557 26.8375 21.1204 27.1229 21.7949 27.3369C22.9073 27.6903 23.9192 27.6404 24.7193 27.5209C25.6115 27.3875 27.4661 26.3976 27.8534 25.3131C28.2402 24.2285 28.2402 23.299 28.1239 23.1051C28.0081 22.9115 27.6985 22.7954 27.2343 22.5629Z" fill="white"/>
</svg>
